<svg width="1440" height="69" viewBox="0 0 1440 69" fill="none" xmlns="http://www.w3.org/2000/svg">
<path d="M-0.812378 41.0863C-0.812378 41.0863 36.288 28.7122 70.3389 27.8489C104.898 26.9856 134.375 27.8489 176.557 32.1655C233.987 37.9209 344.779 61.2302 403.733 48.5683C462.687 35.9065 465.228 35.3309 495.214 27.2734C528.756 18.0648 596.858 -0.352516 681.223 0.510796C771.179 1.37411 934.318 48.2806 1001.4 45.9784C1008.52 45.6906 1034.95 43.6763 1054.77 40.223C1074.08 36.7698 1102.54 29.2878 1141.17 26.6978C1157.43 25.5468 1183.35 23.5324 1213.33 24.1079C1220.96 24.3957 1245.35 25.259 1274.32 28.7122C1303.29 32.1655 1330.22 37.6331 1354.62 39.3597C1406.97 42.5252 1440 37.9209 1440 37.9209V69H-0.812378V41.0863ZM114.554 36.482C118.112 39.3597 124.719 37.6331 136.408 37.6331C148.097 37.6331 167.409 41.0863 165.885 40.7986C164.36 40.5108 150.13 36.482 135.391 35.3309C120.145 33.8921 111.505 33.6043 114.554 36.482ZM208.067 44.2518C208.067 44.2518 220.265 44.8273 236.528 46.8417C252.791 49.1439 288.875 54.8993 313.27 56.9137C354.944 60.0791 393.569 56.9137 390.011 56.6259C385.945 56.3381 341.222 58.3525 300.564 53.4604C283.793 51.446 253.299 47.1295 237.544 45.6906C220.773 43.964 208.067 44.2518 208.067 44.2518ZM498.771 44.5396C490.131 46.554 566.365 31.0144 592.792 26.9856C603.465 25.259 624.302 22.3813 643.615 21.2302C663.435 20.0791 688.847 20.0791 688.338 19.7914C688.338 19.2158 658.861 17.4892 631.417 19.7914C603.973 22.0935 604.99 22.9568 592.792 24.3957C573.48 26.6978 507.411 42.5252 498.771 44.5396ZM428.128 49.1439C427.112 49.1439 432.194 50.295 452.523 45.9784C472.852 41.6619 486.574 35.9065 487.59 35.3309C488.607 35.0432 469.802 40.5108 454.047 43.964C438.801 47.4173 428.636 49.1439 428.128 49.1439ZM1.72864 51.7338C2.23682 51.446 11.3848 48.5683 26.1233 44.5396C40.8618 40.5108 61.1908 36.482 60.1743 36.7698C59.1578 36.7698 42.3866 38.4964 22.5659 43.964C2.74524 49.4317 1.22046 52.0216 1.72864 51.7338ZM1280.93 35.6187C1280.42 36.1942 1290.58 36.1942 1303.8 39.0719C1317.01 41.9496 1331.24 43.6763 1343.44 44.8273C1363.77 47.1295 1402.9 44.5396 1400.87 44.2518C1399.34 43.964 1359.19 45.1151 1337.34 42.2374C1326.16 40.7986 1325.14 40.7986 1308.37 37.6331C1291.6 34.4676 1281.43 34.7554 1280.93 35.6187ZM1069 42.5252C1066.96 42.813 1051.21 47.1295 1026.31 50.0072C1001.4 53.1727 981.075 51.446 981.075 52.3094C981.075 53.1727 986.157 54.8993 1012.58 53.1727C1039.01 51.446 1071.03 42.2374 1069 42.5252ZM1076.11 49.7194C1075.1 49.4317 1058.83 53.4604 1047.14 54.6115C1035.45 55.4748 1037.49 56.0504 1037.49 56.3381C1037.49 56.6259 1043.08 56.9137 1051.21 55.7626C1059.85 54.3237 1077.13 50.0072 1076.11 49.7194ZM964.304 56.3381C963.795 55.7626 946.516 54.036 935.843 51.1583C925.17 48.2806 926.695 49.4317 926.187 49.7194C925.679 50.0072 930.253 52.0216 938.384 53.4604C946.516 55.1871 964.812 56.9137 964.304 56.3381ZM1107.62 37.0576C1108.13 36.1942 1106.1 35.6187 1097.97 37.6331C1089.83 39.6475 1084.75 41.3741 1086.79 41.0863C1088.82 40.7986 1091.36 39.9353 1099.49 38.7842C1108.13 37.6331 1107.11 37.9209 1107.62 37.0576ZM1264.66 33.3166C1265.68 33.3166 1253.99 31.0144 1247.89 30.7266C1241.79 30.4389 1237.73 30.4389 1237.73 31.3022C1237.73 32.1655 1238.24 32.741 1245.86 32.4532C1253.99 32.1655 1263.65 33.3166 1264.66 33.3166ZM666.485 8.28058C666.993 7.99281 678.682 9.14389 704.601 9.14389C730.013 9.14389 773.72 16.0504 792.016 19.2158C810.312 22.3813 741.193 7.99281 708.159 7.41727C675.125 6.84173 665.977 8.56835 666.485 8.28058Z" fill="#040721"/>
</svg>
