<svg xmlns="http://www.w3.org/2000/svg" version="1.1" xmlns:xlink="http://www.w3.org/1999/xlink" xmlns:svgjs="http://svgjs.dev/svgjs" width="2000" height="1548" viewBox="0 0 2000 1548"><g transform="matrix(1,0,0,1,-0.30597812304324634,0.6267206477732543)"><svg viewBox="0 0 319 247" data-background-color="#001f3f" preserveAspectRatio="xMidYMid meet" height="1548" width="2000" xmlns="http://www.w3.org/2000/svg" xmlns:xlink="http://www.w3.org/1999/xlink"><g id="tight-bounds" transform="matrix(1,0,0,1,0.048803510625390345,-0.09999999999999432)"><svg viewBox="0 0 318.9023929787492 247.2" height="247.2" width="318.9023929787492"><g><svg viewBox="0 0 395.52 306.5908132163664" height="247.2" width="318.9023929787492"><g transform="matrix(1,0,0,1,0,183.69675673095074)"><svg viewBox="0 0 395.52 122.89405648541566" height="122.89405648541566" width="395.52"><g id="textblocktransform"><svg viewBox="0 0 395.52 122.89405648541566" height="122.89405648541566" width="395.52" id="textblock"><g><svg viewBox="0 0 395.52 84.13974598374354" height="84.13974598374354" width="395.52"><g transform="matrix(1,0,0,1,0,0)"><svg width="395.52" viewBox="-8.95 -47.55 327.44716101694917 70.44999999999999" height="84.13974598374354" data-palette-color="#ffffff"><path d="M20-34.55L20-34.55Q12.25-34.55 12.25-19.6L12.25-19.6 12.25-15.65Q12.25-8.55 14.3-4.53 16.35-0.5 20.35-0.5L20.35-0.5Q25.85-0.5 30.45-11.2L30.45-11.2 31.35-11.2 31-0.05 30.45-0.05Q30.15-0.6 29.9-0.83 29.65-1.05 29.18-1.05 28.7-1.05 25.55-0.28 22.4 0.5 19.15 0.5L19.15 0.5Q11 0.5 6.53-3.9 2.05-8.3 2.05-17.13 2.05-25.95 6.73-30.75 11.4-35.55 19.3-35.55L19.3-35.55Q22.35-35.55 25.28-34.77 28.2-34 28.7-34 29.2-34 29.45-34.23 29.7-34.45 30-35L30-35 30.55-35 30.95-24.15 30.05-24.15Q27.8-29.2 25.43-31.88 23.05-34.55 20-34.55ZM47-11.75L47-11.75 48.45-11.75 48.45-15.6Q48.45-20.35 47.92-21.98 47.4-23.6 45.9-23.6L45.9-23.6Q45-23.6 44.27-23.13 43.55-22.65 43.55-21.83 43.55-21 43.85-20.15L43.85-20.15 45.1-20.15Q45.5-19.1 45.5-17.63 45.5-16.15 44.25-15.08 43-14 41.1-14L41.1-14Q36.8-14 36.8-18.15L36.8-18.15Q36.8-24.3 47.25-24.3L47.25-24.3Q53.2-24.3 55.47-22.28 57.75-20.25 57.75-14.85L57.75-14.85 57.75-4.7Q57.75-2.1 59.2-2.1L59.2-2.1Q60.9-2.1 61.2-7.25L61.2-7.25 61.95-7.2Q61.75-2.8 60.3-1.15 58.85 0.5 55.55 0.5L55.55 0.5Q49.55 0.5 48.65-3.2L48.65-3.2Q48-1.3 46.7-0.4 45.4 0.5 42.9 0.5L42.9 0.5Q35.5 0.5 35.5-5.55L35.5-5.55Q35.5-9.1 38.32-10.43 41.15-11.75 47-11.75ZM45-5.6Q45-3 45.27-2.25 45.55-1.5 46.32-1.5 47.1-1.5 47.77-2.78 48.45-4.05 48.45-6.3L48.45-6.3 48.45-10.95 48.1-10.95Q45-10.95 45-6.4L45-6.4 45-5.6ZM62.45-22.9L62.45-23.8 74.5-23.8 74.5-19.2Q76.15-24.3 81.77-24.3 87.4-24.3 88.6-18.9L88.6-18.9Q90.35-24.3 95.95-24.3L95.95-24.3Q103.3-24.3 103.3-15.95L103.3-15.95 103.3-0.9 106.1-0.9 106.1 0 92.25 0 92.25-0.9 94-0.9 94-17.15Q94-20.95 93.35-21.6L93.35-21.6Q93.05-21.9 92.55-21.9L92.55-21.9Q91.1-21.9 90-19.95 88.9-18 88.9-15L88.9-15 88.9-0.9 90.7-0.9 90.7 0 77.85 0 77.85-0.9 79.6-0.9 79.6-17.15Q79.6-20.95 78.95-21.6L78.95-21.6Q78.65-21.9 78.15-21.9L78.15-21.9Q76.75-21.9 75.62-19.78 74.5-17.65 74.5-14.7L74.5-14.7 74.5-0.9 76.3-0.9 76.3 0 62.45 0 62.45-0.9 65.2-0.9 65.2-22.9 62.45-22.9ZM125.09-13.45Q125.09-18.6 124.59-20.38 124.09-22.15 122.64-22.15 121.19-22.15 120.04-20.28 118.89-18.4 118.89-15.25L118.89-15.25 118.89-6.1Q118.89-3.95 119.74-2.45 120.59-0.95 122.24-0.95 123.89-0.95 124.49-3.15 125.09-5.35 125.09-10.85L125.09-10.85 125.09-13.45ZM106.94-23.8L118.79-23.8 118.79-19.85Q120.74-24.3 125.69-24.3L125.69-24.3Q129.99-24.3 132.37-21.2 134.74-18.1 134.74-11.8 134.74-5.5 132.17-2.5 129.59 0.5 124.44 0.5L124.44 0.5Q122.04 0.5 120.84-0.1 119.64-0.7 118.89-1.95L118.89-1.95 118.89 11 125.34 11 125.34 11.9 106.84 11.9 106.84 11 109.59 11 109.59-22.9 106.94-22.9 106.94-23.8ZM165.49-0.9L165.49 0 154.09 0 153.54-3.65Q152.74-1.65 151.17-0.58 149.59 0.5 146.49 0.5L146.49 0.5Q138.74 0.5 138.74-7.85L138.74-7.85 138.74-22.9 135.94-22.9 135.94-23.8 148.04-23.8 148.04-6.65Q148.04-3.65 148.47-2.7 148.89-1.75 150.17-1.75 151.44-1.75 152.44-3.3 153.44-4.85 153.44-7.6L153.44-7.6 153.44-22.9 151.14-22.9 151.14-23.8 162.74-23.8 162.74-0.9 165.49-0.9ZM168.24 0.5L167.64 0.5 167.64-8.45 168.24-8.45Q169.54-4.1 171.74-2.35 173.94-0.6 177.24-0.6L177.24-0.6Q182.34-0.6 182.34-3.85L182.34-3.85Q182.34-5.25 181.09-5.95L181.09-5.95Q179.14-7.05 176.09-7.65L176.09-7.65Q172.69-8.55 170.39-10.05L170.39-10.05Q167.64-11.85 167.64-15.75 167.64-19.65 170.04-21.98 172.44-24.3 176.44-24.3L176.44-24.3Q178.89-24.3 181.49-23.15L181.49-23.15Q182.44-22.75 182.94-22.75 183.44-22.75 183.79-23.1 184.14-23.45 184.64-24.4L184.64-24.4 185.19-24.4 185.19-16.75 184.59-16.75Q182.04-23.25 176.69-23.25L176.69-23.25Q174.34-23.25 173.19-22.43 172.04-21.6 172.04-20.35L172.04-20.35Q172.04-19.6 172.39-19.18 172.74-18.75 172.94-18.55 173.14-18.35 173.59-18.13 174.04-17.9 174.34-17.78 174.64-17.65 175.26-17.45 175.89-17.25 176.19-17.2L176.19-17.2Q179.59-16.35 181.09-15.73 182.59-15.1 183.94-14.2L183.94-14.2Q186.69-12.3 186.69-8.08 186.69-3.85 184.19-1.68 181.69 0.5 177.34 0.5L177.34 0.5Q174.24 0.5 171.34-0.95L171.34-0.95Q170.74-1.35 170.39-1.35L170.39-1.35Q169.29-1.35 168.24 0.5L168.24 0.5ZM203.94-0.55L203.94-0.55Q206.44-0.55 208.36-1.9 210.28-3.25 210.28-5.98 210.28-8.7 208.21-10.15 206.13-11.6 202.31-12.68 198.49-13.75 196.76-14.55 195.03-15.35 193.49-16.65L193.49-16.65Q190.38-19.25 190.38-24.7L190.38-24.7Q190.38-29.15 193.56-32.35 196.74-35.55 202.24-35.55L202.24-35.55Q204.88-35.55 207.76-34.77 210.63-34 211.34-34 212.03-34 212.59-35L212.59-35 213.13-35 213.49-24.9 212.69-24.9Q210.28-29.25 207.66-31.88 205.03-34.5 201.96-34.5 198.88-34.5 197.19-33.08 195.49-31.65 195.49-29.28 195.49-26.9 197.51-25.63 199.53-24.35 202.49-23.55 205.44-22.75 206.36-22.45 207.28-22.15 208.66-21.63 210.03-21.1 210.91-20.53 211.78-19.95 212.76-19.07 213.74-18.2 214.28-17.15L214.28-17.15Q215.63-14.75 215.63-11.45L215.63-11.45Q215.63-6.05 212.26-2.78 208.88 0.5 203.38 0.5L203.38 0.5Q200.53 0.5 196.86-0.25 193.19-1 192.78-1L192.78-1Q192.09-1 191.44 0.5L191.44 0.5 190.74 0.5 190.24-11.4 191.09-11.4Q193.28-7.05 196.71-3.8 200.13-0.55 203.94-0.55ZM246.93-0.9L246.93 0 235.53 0 234.98-3.65Q234.18-1.65 232.61-0.58 231.03 0.5 227.93 0.5L227.93 0.5Q220.18 0.5 220.18-7.85L220.18-7.85 220.18-22.9 217.38-22.9 217.38-23.8 229.48-23.8 229.48-6.65Q229.48-3.65 229.91-2.7 230.33-1.75 231.61-1.75 232.88-1.75 233.88-3.3 234.88-4.85 234.88-7.6L234.88-7.6 234.88-22.9 232.58-22.9 232.58-23.8 244.18-23.8 244.18-0.9 246.93-0.9ZM255.28-27.25Q252.63-27.25 251.5-28.6 250.38-29.95 250.38-31.95 250.38-33.95 251.61-35.25 252.83-36.55 255.33-36.55 257.83-36.55 259.13-35.38 260.43-34.2 260.43-32.02 260.43-29.85 259.18-28.55 257.93-27.25 255.28-27.25ZM247.73-22.9L247.73-23.8 259.98-23.8 259.98-0.9 262.78-0.9 262.78 0 247.93 0 247.93-0.9 250.68-0.9 250.68-22.9 247.73-22.9ZM266.28-7.15L266.28-7.15 266.28-22.9 263.53-22.9 263.53-23.8 266.28-23.8 266.28-30.25 275.58-32.55 275.58-23.8 282.08-23.8 282.08-22.9 275.58-22.9 275.58-6.05Q275.58-3.7 276.05-2.6 276.53-1.5 278.03-1.5 279.53-1.5 280.65-3 281.78-4.5 282.13-7.1L282.13-7.1 282.98-7Q282.58-3.55 280.78-1.53 278.98 0.5 274.83 0.5 270.68 0.5 268.48-1.15 266.28-2.8 266.28-7.15ZM296.63 0.5Q290.18 0.5 286.95-2.83 283.73-6.15 283.73-12.08 283.73-18 287.35-21.15 290.98-24.3 296.58-24.3L296.58-24.3Q307.93-24.3 307.48-12.9L307.48-12.9 293.38-12.9 293.38-10.95Q293.38-6.05 294.63-3.55 295.88-1.05 298.98-1.05L298.98-1.05Q304.78-1.05 306.58-7.25L306.58-7.25 307.48-7.1Q306.53-3.5 304.05-1.5 301.58 0.5 296.63 0.5L296.63 0.5ZM293.43-16.35L293.43-13.9 298.58-13.9 298.58-16.35Q298.58-20.4 298.1-21.88 297.63-23.35 296.2-23.35 294.78-23.35 294.1-21.78 293.43-20.2 293.43-16.35L293.43-16.35Z" opacity="1" transform="matrix(1,0,0,1,0,0)" fill="#ffffff" class="wordmark-text-0" data-fill-palette-color="primary" id="text-0"></path></svg></g></svg></g><g transform="matrix(1,0,0,1,10.5,97.99691665184983)"><svg viewBox="0 0 374.52 24.89713983356583" height="24.89713983356583" width="374.52"><g transform="matrix(1,0,0,1,0,0)"><svg width="374.52" viewBox="-10.45 -47.55 1040.35 70.1" height="24.89713983356583" data-palette-color="#ffffff"><path d="M27.05-33.1Q27.05-32.55 26.75-31.75 26.45-30.95 25.95-30.2L25.95-30.2 16.3-12.55 16.35-6Q16.35-2.3 17.05-0.45L17.05-0.45Q16.65-0.05 15.98 0.28 15.3 0.6 14.45 0.6L14.45 0.6Q13.25 0.6 12.53-0.08 11.8-0.75 11.8-1.9L11.8-1.9 11.8-12.6Q11.7-12.75 11.15-13.7L11.15-13.7 2.45-31.2Q1.75-32.6 0.55-33.8L0.55-33.8Q1.05-34.3 1.93-34.75 2.8-35.2 3.85-35.2L3.85-35.2Q5.05-35.2 5.73-34.6 6.4-34 7-32.75L7-32.75 14.85-15.8 22.2-31.55Q22.75-32.7 22.75-33.4L22.75-33.4Q22.75-34.3 22.3-34.8L22.3-34.8Q23.4-35.2 24.85-35.2L24.85-35.2Q25.9-35.2 26.48-34.6 27.05-34 27.05-33.1L27.05-33.1ZM41.8 0.65Q36.3 0.65 33.22-2.88 30.15-6.4 30.15-12.7L30.15-12.7Q30.15-19.05 33.22-22.6 36.3-26.15 41.8-26.15L41.8-26.15Q47.3-26.15 50.35-22.6 53.4-19.05 53.4-12.7L53.4-12.7Q53.4-6.4 50.35-2.88 47.3 0.65 41.8 0.65L41.8 0.65ZM41.8-1.25Q45.1-1.25 46.82-4.2 48.55-7.15 48.55-12.7L48.55-12.7Q48.55-18.35 46.82-21.3 45.1-24.25 41.8-24.25L41.8-24.25Q38.45-24.25 36.72-21.3 35-18.35 35-12.7L35-12.7Q35-7.15 36.72-4.2 38.45-1.25 41.8-1.25L41.8-1.25ZM82.3-3.65Q82.84-2.9 82.84-2L82.84-2Q82.84-0.85 82.02-0.18 81.2 0.5 79.7 0.5L79.7 0.5Q77.7 0.5 76.62-0.85 75.55-2.2 75.55-4.85L75.55-4.85 75.55-5.5Q74.55-2.55 72.37-0.93 70.2 0.7 67.2 0.7L67.2 0.7Q63.09 0.7 61.22-1.7 59.34-4.1 59.34-9.75L59.34-9.75 59.34-19.55Q59.34-23.05 58.65-25.1L58.65-25.1Q59.9-26.15 61.25-26.15L61.25-26.15Q62.4-26.15 63.12-25.48 63.84-24.8 63.84-23.65L63.84-23.65 63.84-10.35Q63.84-5.65 64.89-3.68 65.95-1.7 68.55-1.7L68.55-1.7Q70.25-1.7 71.72-2.95 73.2-4.2 74.15-6.85 75.09-9.5 75.09-13.55L75.09-13.55Q75.09-19.8 75-21.73 74.9-23.65 74.34-25.15L74.34-25.15Q75.5-26.15 76.95-26.15L76.95-26.15Q78.05-26.15 78.8-25.43 79.55-24.7 79.55-23.45L79.55-23.45 79.59-5.5Q79.59-4.1 79.92-3.53 80.25-2.95 80.95-2.95L80.95-2.95Q81.9-2.95 82.3-3.65L82.3-3.65ZM99.19-26.15Q101.79-26.15 103.42-24.73 105.04-23.3 105.04-20.85L105.04-20.85Q105.04-19.1 104.04-18 103.04-16.9 101.64-16.9L101.64-16.9Q100.39-16.9 99.84-17.55L99.84-17.55Q100.39-18.4 100.59-19.1 100.79-19.8 100.79-20.75L100.79-20.75Q100.79-23.75 98.04-23.75L98.04-23.75Q95.89-23.75 94.47-20.85 93.04-17.95 93.04-12L93.04-12Q93.04-5.85 93.14-3.93 93.24-2 93.79-0.55L93.79-0.55Q93.39-0.15 92.72 0.15 92.04 0.45 91.14 0.5L91.14 0.5Q90.04 0.5 89.29-0.23 88.54-0.95 88.54-2.2L88.54-2.2 88.54-20.05Q88.54-21.4 88.22-22 87.89-22.6 87.14-22.6L87.14-22.6Q86.19-22.6 85.84-21.9L85.84-21.9Q85.24-22.75 85.24-23.55L85.24-23.55Q85.24-24.7 86.09-25.4 86.94-26.1 88.44-26.1L88.44-26.1Q90.44-26.1 91.52-24.68 92.59-23.25 92.54-20.5L92.54-20.5Q93.39-23.25 95.09-24.7 96.79-26.15 99.19-26.15L99.19-26.15ZM133.54 0.65Q127.14 0.65 123.64-4 120.14-8.65 120.14-17.35L120.14-17.35Q120.14-26 123.74-30.68 127.34-35.35 133.84-35.35L133.84-35.35Q136.49-35.35 138.84-34.68 141.19-34 142.61-32.8 144.04-31.6 144.04-30.1L144.04-30.1Q144.04-29 143.04-28.25 142.04-27.5 140.39-27.55L140.39-27.55Q139.99-30.4 138.31-31.9 136.64-33.4 133.89-33.4L133.89-33.4Q129.59-33.4 127.39-29.38 125.19-25.35 125.19-17.35L125.19-17.35Q125.19-9.4 127.36-5.35 129.54-1.3 133.79-1.3L133.79-1.3Q136.54-1.3 138.56-3.08 140.59-4.85 141.19-8.1L141.19-8.1 141.79-8.15Q143.14-8.15 144.06-7.55 144.99-6.95 144.99-5.8L144.99-5.8Q144.99-4.05 143.36-2.55 141.74-1.05 139.09-0.2 136.44 0.65 133.54 0.65L133.54 0.65ZM161.04 0.65Q155.54 0.65 152.46-2.88 149.39-6.4 149.39-12.7L149.39-12.7Q149.39-19.05 152.46-22.6 155.54-26.15 161.04-26.15L161.04-26.15Q166.54-26.15 169.59-22.6 172.64-19.05 172.64-12.7L172.64-12.7Q172.64-6.4 169.59-2.88 166.54 0.65 161.04 0.65L161.04 0.65ZM161.04-1.25Q164.34-1.25 166.06-4.2 167.79-7.15 167.79-12.7L167.79-12.7Q167.79-18.35 166.06-21.3 164.34-24.25 161.04-24.25L161.04-24.25Q157.69-24.25 155.96-21.3 154.24-18.35 154.24-12.7L154.24-12.7Q154.24-7.15 155.96-4.2 157.69-1.25 161.04-1.25L161.04-1.25ZM214.68-6Q214.68-2.5 215.38-0.45L215.38-0.45Q214.23 0.6 212.78 0.6L212.78 0.6Q211.63 0.6 210.91-0.08 210.18-0.75 210.18-1.9L210.18-1.9 210.18-15.2Q210.18-19.4 209.23-21.58 208.28-23.75 205.73-23.75L205.73-23.75Q204.18-23.75 202.76-22.55 201.33-21.35 200.38-18.85 199.43-16.35 199.38-12.55L199.38-12.55 199.38-6Q199.38-2.5 200.08-0.45L200.08-0.45Q198.93 0.6 197.53 0.6L197.53 0.6Q196.43 0.6 195.73-0.08 195.03-0.75 195.03-1.9L195.03-1.9 194.98-15.2Q194.98-19.6 193.98-21.68 192.98-23.75 190.38-23.75L190.38-23.75Q188.78-23.75 187.38-22.5 185.98-21.25 185.11-18.55 184.23-15.85 184.23-11.75L184.23-11.75Q184.23-5.65 184.33-3.75 184.43-1.85 184.98-0.4L184.98-0.4Q183.98 0.6 182.38 0.6L182.38 0.6Q181.23 0.6 180.51-0.13 179.78-0.85 179.78-2.1L179.78-2.1 179.73-19.95Q179.73-21.25 179.31-21.93 178.88-22.6 178.08-22.6L178.08-22.6Q177.58-22.6 177.16-22.35 176.73-22.1 176.53-21.65L176.53-21.65Q175.98-22.4 175.98-23.3L175.98-23.3Q175.98-24.55 176.91-25.33 177.83-26.1 179.28-26.1L179.28-26.1Q181.38-26.1 182.56-24.6 183.73-23.1 183.73-20.25L183.73-20.25 183.73-19.75Q184.73-22.75 186.81-24.45 188.88-26.15 191.78-26.15L191.78-26.15Q197.73-26.15 198.98-19.9L198.98-19.9Q199.93-22.85 202.06-24.5 204.18-26.15 207.08-26.15L207.08-26.15Q214.68-26.15 214.68-15.8L214.68-15.8 214.68-6ZM235.93-26.15Q240.73-26.15 242.68-22.58 244.63-19 244.63-13.85L244.63-13.85Q244.63-6.95 241.83-3.15 239.03 0.65 234.03 0.65L234.03 0.65Q231.58 0.65 229.83-0.33 228.08-1.3 227.33-3.1L227.33-3.1 227.33 2.2Q227.33 7.35 228.08 10.05L228.08 10.05Q227.68 10.45 227.01 10.75 226.33 11.05 225.48 11.05L225.48 11.05Q224.33 11.05 223.58 10.4 222.83 9.75 222.83 8.6L222.83 8.6 222.88-19.9Q222.88-21.3 222.56-21.88 222.23-22.45 221.48-22.45L221.48-22.45Q220.53-22.45 220.18-21.75L220.18-21.75Q219.58-22.65 219.58-23.45L219.58-23.45Q219.58-24.55 220.46-25.25 221.33-25.95 222.78-25.95L222.78-25.95Q227.03-25.95 227.13-19.3L227.13-19.3Q228.33-22.55 230.53-24.35 232.73-26.15 235.93-26.15L235.93-26.15ZM232.98-1.9Q236.33-1.9 238.06-4.93 239.78-7.95 239.78-13.85L239.78-13.85Q239.78-18.2 238.73-20.83 237.68-23.45 234.68-23.45L234.68-23.45Q232.43-23.45 230.78-21.65 229.13-19.85 228.26-16.9 227.38-13.95 227.38-10.5L227.38-10.5Q227.38-6.45 228.63-4.17 229.88-1.9 232.98-1.9L232.98-1.9ZM255.58 0.5Q253.23 0.5 251.9-1.05 250.58-2.6 250.58-5.35L250.58-5.35 250.58-34.05Q250.58-35.25 251.3-35.9 252.03-36.55 253.23-36.55L253.23-36.55Q254.78-36.55 255.83-35.5L255.83-35.5Q255.38-34.05 255.25-32 255.13-29.95 255.13-25.75L255.13-25.75 255.08-5.65Q255.08-3 256.98-3L256.98-3Q257.53-3 258.03-3.25 258.53-3.5 258.73-3.95L258.73-3.95Q259.33-3.15 259.33-2.25L259.33-2.25Q259.33-1.05 258.23-0.28 257.13 0.5 255.58 0.5L255.58 0.5ZM283.03-6.6Q283.78-6.3 283.78-5.45L283.78-5.45Q283.78-4.9 283.43-4.05L283.43-4.05Q282.53-1.75 280.13-0.55 277.73 0.65 274.43 0.65L274.43 0.65Q268.88 0.65 265.7-2.8 262.53-6.25 262.53-12.65L262.53-12.65Q262.53-18.95 265.68-22.55 268.82-26.15 274.63-26.15L274.63-26.15Q278.82-26.15 281.4-24.25 283.98-22.35 283.98-18.85L283.98-18.85Q283.98-15.15 280.98-13.2 277.98-11.25 272.73-11.25L272.73-11.25Q270.07-11.25 267.43-11.55L267.43-11.55Q268.03-2.35 275.57-2.35L275.57-2.35Q278.28-2.35 280.25-3.48 282.23-4.6 283.03-6.6L283.03-6.6ZM274.43-24.25Q271.18-24.25 269.3-21.45 267.43-18.65 267.38-13.4L267.38-13.4Q268.43-13.3 270.73-13.2L270.73-13.2Q274.53-13.2 276.82-14.58 279.13-15.95 279.13-19.5L279.13-19.5Q279.13-22.1 277.78-23.18 276.43-24.25 274.43-24.25L274.43-24.25ZM296.92-25.45Q297.77-25.45 299.22-25.5 300.67-25.55 301.52-25.6L301.52-25.6 301.47-24.4Q301.42-23.8 301.07-23.48 300.72-23.15 300.22-23.15L300.22-23.15 295.27-23.15 295.27-21.35 295.22-5.65Q295.22-2.95 297.62-2.95L297.62-2.95Q298.32-2.95 299-3.2 299.67-3.45 299.87-3.9L299.87-3.9Q300.47-3.1 300.47-2.2L300.47-2.2Q300.47-0.95 299.22-0.2 297.97 0.55 295.97 0.55L295.97 0.55Q293.52 0.55 292.12-1 290.72-2.55 290.72-5.3L290.72-5.3 290.72-23.15 289.97-23.15Q287.97-23.15 286.97-23L286.97-23 287.02-24.25Q287.07-24.85 287.42-25.15 287.77-25.45 288.32-25.45L288.32-25.45 290.72-25.45 290.72-29.65Q290.72-30.8 291.45-31.45 292.17-32.1 293.37-32.1L293.37-32.1Q294.77-32.1 295.92-31.1L295.92-31.1Q295.37-29.2 295.32-25.45L295.32-25.45 296.92-25.45ZM325.82-6.6Q326.57-6.3 326.57-5.45L326.57-5.45Q326.57-4.9 326.22-4.05L326.22-4.05Q325.32-1.75 322.92-0.55 320.52 0.65 317.22 0.65L317.22 0.65Q311.67 0.65 308.5-2.8 305.32-6.25 305.32-12.65L305.32-12.65Q305.32-18.95 308.47-22.55 311.62-26.15 317.42-26.15L317.42-26.15Q321.62-26.15 324.2-24.25 326.77-22.35 326.77-18.85L326.77-18.85Q326.77-15.15 323.77-13.2 320.77-11.25 315.52-11.25L315.52-11.25Q312.87-11.25 310.22-11.55L310.22-11.55Q310.82-2.35 318.37-2.35L318.37-2.35Q321.07-2.35 323.05-3.48 325.02-4.6 325.82-6.6L325.82-6.6ZM317.22-24.25Q313.97-24.25 312.1-21.45 310.22-18.65 310.17-13.4L310.17-13.4Q311.22-13.3 313.52-13.2L313.52-13.2Q317.32-13.2 319.62-14.58 321.92-15.95 321.92-19.5L321.92-19.5Q321.92-22.1 320.57-23.18 319.22-24.25 317.22-24.25L317.22-24.25ZM356.06 0.65Q349.67 0.65 346.17-4 342.67-8.65 342.67-17.35L342.67-17.35Q342.67-26 346.26-30.68 349.87-35.35 356.37-35.35L356.37-35.35Q359.01-35.35 361.37-34.68 363.71-34 365.14-32.8 366.56-31.6 366.56-30.1L366.56-30.1Q366.56-29 365.56-28.25 364.56-27.5 362.92-27.55L362.92-27.55Q362.51-30.4 360.84-31.9 359.17-33.4 356.42-33.4L356.42-33.4Q352.12-33.4 349.92-29.38 347.71-25.35 347.71-17.35L347.71-17.35Q347.71-9.4 349.89-5.35 352.06-1.3 356.31-1.3L356.31-1.3Q359.06-1.3 361.09-3.08 363.12-4.85 363.71-8.1L363.71-8.1 364.31-8.15Q365.67-8.15 366.59-7.55 367.51-6.95 367.51-5.8L367.51-5.8Q367.51-4.05 365.89-2.55 364.26-1.05 361.62-0.2 358.96 0.65 356.06 0.65L356.06 0.65ZM396.46-3.95Q397.01-3.15 397.01-2.25L397.01-2.25Q397.01-1.1 395.94-0.3 394.86 0.5 393.31 0.5L393.31 0.5Q391.01 0.5 389.86-1.1 388.71-2.7 388.71-6.1L388.71-6.1 388.71-6.9Q387.16-3.5 384.41-1.48 381.66 0.55 378.26 0.55L378.26 0.55Q375.36 0.55 373.66-1.03 371.96-2.6 371.96-5.25L371.96-5.25Q371.96-8.25 374.26-10.33 376.56-12.4 380.31-13.45L380.31-13.45Q384.31-14.5 388.46-14.35L388.46-14.35 388.46-15.6Q388.46-20.05 387.09-22.15 385.71-24.25 382.51-24.25L382.51-24.25Q380.46-24.25 379.06-23.3 377.66-22.35 377.66-20.25L377.66-20.25Q377.66-19.15 378.19-18.13 378.71-17.1 379.76-16.7L379.76-16.7Q378.86-15.65 377.11-15.65L377.11-15.65Q375.31-15.65 374.21-16.98 373.11-18.3 373.11-20.1L373.11-20.1Q373.11-23 375.74-24.58 378.36-26.15 382.91-26.15L382.91-26.15Q388.16-26.15 390.64-23.55 393.11-20.95 393.11-15.35L393.11-15.35 393.11-5.65Q393.11-3 394.86-3L394.86-3Q395.26-3 395.71-3.25 396.16-3.5 396.46-3.95L396.46-3.95ZM380.21-2.55Q382.06-2.55 384.01-3.98 385.96-5.4 387.26-7.73 388.56-10.05 388.61-12.65L388.61-12.65Q386.76-12.75 384.71-12.48 382.66-12.2 381.26-11.6L381.26-11.6Q379.16-10.8 378.04-9.45 376.91-8.1 376.91-6.25L376.91-6.25Q376.91-4.65 377.71-3.6 378.51-2.55 380.21-2.55L380.21-2.55ZM437.36-6Q437.36-2.5 438.06-0.45L438.06-0.45Q436.91 0.6 435.46 0.6L435.46 0.6Q434.31 0.6 433.58-0.08 432.86-0.75 432.86-1.9L432.86-1.9 432.86-15.2Q432.86-19.4 431.91-21.58 430.96-23.75 428.41-23.75L428.41-23.75Q426.86-23.75 425.44-22.55 424.01-21.35 423.06-18.85 422.11-16.35 422.06-12.55L422.06-12.55 422.06-6Q422.06-2.5 422.76-0.45L422.76-0.45Q421.61 0.6 420.21 0.6L420.21 0.6Q419.11 0.6 418.41-0.08 417.71-0.75 417.71-1.9L417.71-1.9 417.66-15.2Q417.66-19.6 416.66-21.68 415.66-23.75 413.06-23.75L413.06-23.75Q411.46-23.75 410.06-22.5 408.66-21.25 407.78-18.55 406.91-15.85 406.91-11.75L406.91-11.75Q406.91-5.65 407.01-3.75 407.11-1.85 407.66-0.4L407.66-0.4Q406.66 0.6 405.06 0.6L405.06 0.6Q403.91 0.6 403.19-0.13 402.46-0.85 402.46-2.1L402.46-2.1 402.41-19.95Q402.41-21.25 401.98-21.93 401.56-22.6 400.76-22.6L400.76-22.6Q400.26-22.6 399.83-22.35 399.41-22.1 399.21-21.65L399.21-21.65Q398.66-22.4 398.66-23.3L398.66-23.3Q398.66-24.55 399.58-25.33 400.51-26.1 401.96-26.1L401.96-26.1Q404.06-26.1 405.23-24.6 406.41-23.1 406.41-20.25L406.41-20.25 406.41-19.75Q407.41-22.75 409.48-24.45 411.56-26.15 414.46-26.15L414.46-26.15Q420.41-26.15 421.66-19.9L421.66-19.9Q422.61-22.85 424.73-24.5 426.86-26.15 429.76-26.15L429.76-26.15Q437.36-26.15 437.36-15.8L437.36-15.8 437.36-6ZM458.61-26.15Q463.41-26.15 465.36-22.58 467.31-19 467.31-13.85L467.31-13.85Q467.31-6.95 464.51-3.15 461.71 0.65 456.71 0.65L456.71 0.65Q454.26 0.65 452.51-0.33 450.76-1.3 450.01-3.1L450.01-3.1 450.01 2.2Q450.01 7.35 450.76 10.05L450.76 10.05Q450.36 10.45 449.68 10.75 449.01 11.05 448.16 11.05L448.16 11.05Q447.01 11.05 446.26 10.4 445.51 9.75 445.51 8.6L445.51 8.6 445.56-19.9Q445.56-21.3 445.23-21.88 444.91-22.45 444.16-22.45L444.16-22.45Q443.21-22.45 442.86-21.75L442.86-21.75Q442.26-22.65 442.26-23.45L442.26-23.45Q442.26-24.55 443.13-25.25 444.01-25.95 445.46-25.95L445.46-25.95Q449.71-25.95 449.81-19.3L449.81-19.3Q451.01-22.55 453.21-24.35 455.41-26.15 458.61-26.15L458.61-26.15ZM455.66-1.9Q459.01-1.9 460.73-4.93 462.46-7.95 462.46-13.85L462.46-13.85Q462.46-18.2 461.41-20.83 460.36-23.45 457.36-23.45L457.36-23.45Q455.11-23.45 453.46-21.65 451.81-19.85 450.93-16.9 450.06-13.95 450.06-10.5L450.06-10.5Q450.06-6.45 451.31-4.17 452.56-1.9 455.66-1.9L455.66-1.9ZM496.16-3.65Q496.71-2.9 496.71-2L496.71-2Q496.71-0.85 495.88-0.18 495.06 0.5 493.56 0.5L493.56 0.5Q491.56 0.5 490.48-0.85 489.41-2.2 489.41-4.85L489.41-4.85 489.41-5.5Q488.41-2.55 486.23-0.93 484.06 0.7 481.06 0.7L481.06 0.7Q476.96 0.7 475.08-1.7 473.21-4.1 473.21-9.75L473.21-9.75 473.21-19.55Q473.21-23.05 472.51-25.1L472.51-25.1Q473.76-26.15 475.11-26.15L475.11-26.15Q476.26-26.15 476.98-25.48 477.71-24.8 477.71-23.65L477.71-23.65 477.71-10.35Q477.71-5.65 478.76-3.68 479.81-1.7 482.41-1.7L482.41-1.7Q484.11-1.7 485.58-2.95 487.06-4.2 488.01-6.85 488.96-9.5 488.96-13.55L488.96-13.55Q488.96-19.8 488.86-21.73 488.76-23.65 488.21-25.15L488.21-25.15Q489.36-26.15 490.81-26.15L490.81-26.15Q491.91-26.15 492.66-25.43 493.41-24.7 493.41-23.45L493.41-23.45 493.46-5.5Q493.46-4.1 493.78-3.53 494.11-2.95 494.81-2.95L494.81-2.95Q495.76-2.95 496.16-3.65L496.16-3.65ZM509.1 0.65Q504.4 0.65 502.05-1 499.7-2.65 499.7-5.35L499.7-5.35Q499.7-6.65 500.38-7.5 501.05-8.35 502.5-8.35L502.5-8.35Q502.75-8.35 503.35-8.25L503.35-8.25Q503.2-7.6 503.2-7L503.2-7Q503.2-6.4 503.25-6.05L503.25-6.05Q503.4-3.9 505.05-2.63 506.7-1.35 509.55-1.35L509.55-1.35Q512.2-1.35 513.83-2.33 515.45-3.3 515.45-5.1L515.45-5.1Q515.45-6.35 514.78-7.23 514.1-8.1 513.08-8.7 512.05-9.3 510.2-10.15L510.2-10.15 508.65-10.85Q505.9-12.15 504.4-13.08 502.9-14 501.8-15.6 500.7-17.2 500.7-19.55L500.7-19.55Q500.7-22.9 503.28-24.55 505.85-26.2 509.85-26.2L509.85-26.2Q514-26.2 516.35-24.9 518.7-23.6 518.7-21.2L518.7-21.2Q518.7-20.2 518.18-19.53 517.65-18.85 516.55-18.75L516.55-18.75Q516.3-18.7 515.85-18.7L515.85-18.7Q515.35-18.7 515.05-18.8L515.05-18.8Q515.1-19.05 515.1-19.7L515.1-19.7Q515.1-20.5 514.9-21.05L514.9-21.05Q514.7-22.6 513.33-23.43 511.95-24.25 509.7-24.25L509.7-24.25Q507.6-24.25 506.23-23.45 504.85-22.65 504.85-20.95L504.85-20.95Q504.85-19.5 505.68-18.45 506.5-17.4 507.65-16.73 508.8-16.05 511.2-14.9L511.2-14.9 512.15-14.45Q514.65-13.25 516.13-12.35 517.6-11.45 518.65-10.05 519.7-8.65 519.7-6.65L519.7-6.65Q519.7-3.65 517.18-1.5 514.65 0.65 509.1 0.65L509.1 0.65ZM570.15-6Q570.15-2.5 570.85-0.45L570.85-0.45Q569.65 0.6 568.2 0.6L568.2 0.6Q567.1 0.6 566.42-0.08 565.75-0.75 565.75-1.9L565.75-1.9 565.65-29.25 555.2-5.15Q553.7-4.65 552.75-4.65L552.75-4.65Q551.7-4.65 550.9-5.05L550.9-5.05Q545.25-15.9 539.6-29.25L539.6-29.25 539.65-6Q539.65-2.1 540.35-0.05L540.35-0.05Q539.7 0.6 538.6 0.6L538.6 0.6Q536.95 0.6 536.95-1.45L536.95-1.45 536.9-28.7Q536.9-32.75 536.6-34.55L536.6-34.55Q537.25-35.2 539.65-35.2L539.65-35.2Q541.25-35.2 542.05-34.3L542.05-34.3Q546.5-24.45 551.15-14.45L551.15-14.45 553.65-9Q556.15-14.7 561.45-27.55L561.45-27.55 564.45-34.75Q565.65-35.2 567.3-35.2L567.3-35.2Q568.35-35.2 569.17-34.83 570-34.45 570.1-33.95L570.1-33.95 570.15-6ZM601.49-3.95Q602.04-3.15 602.04-2.25L602.04-2.25Q602.04-1.1 600.97-0.3 599.89 0.5 598.34 0.5L598.34 0.5Q596.04 0.5 594.89-1.1 593.74-2.7 593.74-6.1L593.74-6.1 593.74-6.9Q592.19-3.5 589.44-1.48 586.69 0.55 583.29 0.55L583.29 0.55Q580.39 0.55 578.69-1.03 576.99-2.6 576.99-5.25L576.99-5.25Q576.99-8.25 579.29-10.33 581.59-12.4 585.34-13.45L585.34-13.45Q589.34-14.5 593.49-14.35L593.49-14.35 593.49-15.6Q593.49-20.05 592.12-22.15 590.74-24.25 587.54-24.25L587.54-24.25Q585.49-24.25 584.09-23.3 582.69-22.35 582.69-20.25L582.69-20.25Q582.69-19.15 583.22-18.13 583.74-17.1 584.79-16.7L584.79-16.7Q583.89-15.65 582.14-15.65L582.14-15.65Q580.34-15.65 579.24-16.98 578.14-18.3 578.14-20.1L578.14-20.1Q578.14-23 580.77-24.58 583.39-26.15 587.94-26.15L587.94-26.15Q593.19-26.15 595.67-23.55 598.14-20.95 598.14-15.35L598.14-15.35 598.14-5.65Q598.14-3 599.89-3L599.89-3Q600.29-3 600.74-3.25 601.19-3.5 601.49-3.95L601.49-3.95ZM585.24-2.55Q587.09-2.55 589.04-3.98 590.99-5.4 592.29-7.73 593.59-10.05 593.64-12.65L593.64-12.65Q591.79-12.75 589.74-12.48 587.69-12.2 586.29-11.6L586.29-11.6Q584.19-10.8 583.07-9.45 581.94-8.1 581.94-6.25L581.94-6.25Q581.94-4.65 582.74-3.6 583.54-2.55 585.24-2.55L585.24-2.55ZM627.59-6Q627.69-2.15 628.34-0.45L628.34-0.45Q627.19 0.6 625.74 0.6L625.74 0.6Q624.59 0.6 623.84-0.08 623.09-0.75 623.09-1.9L623.09-1.9 623.09-15.2Q623.04-19.5 621.94-21.55 620.84-23.6 618.19-23.6L618.19-23.6Q616.49-23.6 614.97-22.38 613.44-21.15 612.47-18.55 611.49-15.95 611.49-12L611.49-12Q611.49-5.75 611.59-3.8 611.69-1.85 612.24-0.4L612.24-0.4Q611.84 0 611.17 0.3 610.49 0.6 609.64 0.6L609.64 0.6Q608.44 0.6 607.72-0.13 606.99-0.85 606.99-2.1L606.99-2.1 606.99-20.05Q606.94-21.45 606.62-22.03 606.29-22.6 605.59-22.6L605.59-22.6Q604.64-22.6 604.29-21.9L604.29-21.9Q603.69-22.75 603.69-23.55L603.69-23.55Q603.69-24.7 604.54-25.4 605.39-26.1 606.89-26.1L606.89-26.1Q608.89-26.1 609.97-24.73 611.04-23.35 611.04-20.7L611.04-20.7 611.04-20.1Q612.09-23 614.29-24.58 616.49-26.15 619.54-26.15L619.54-26.15Q627.59-26.15 627.59-15.8L627.59-15.8 627.59-6ZM657.99-3.95Q658.54-3.15 658.54-2.25L658.54-2.25Q658.54-1.1 657.46-0.3 656.39 0.5 654.84 0.5L654.84 0.5Q652.54 0.5 651.39-1.1 650.24-2.7 650.24-6.1L650.24-6.1 650.24-6.9Q648.69-3.5 645.94-1.48 643.19 0.55 639.79 0.55L639.79 0.55Q636.89 0.55 635.19-1.03 633.49-2.6 633.49-5.25L633.49-5.25Q633.49-8.25 635.79-10.33 638.09-12.4 641.84-13.45L641.84-13.45Q645.84-14.5 649.99-14.35L649.99-14.35 649.99-15.6Q649.99-20.05 648.61-22.15 647.24-24.25 644.04-24.25L644.04-24.25Q641.99-24.25 640.59-23.3 639.19-22.35 639.19-20.25L639.19-20.25Q639.19-19.15 639.71-18.13 640.24-17.1 641.29-16.7L641.29-16.7Q640.39-15.65 638.64-15.65L638.64-15.65Q636.84-15.65 635.74-16.98 634.64-18.3 634.64-20.1L634.64-20.1Q634.64-23 637.26-24.58 639.89-26.15 644.44-26.15L644.44-26.15Q649.69-26.15 652.16-23.55 654.64-20.95 654.64-15.35L654.64-15.35 654.64-5.65Q654.64-3 656.39-3L656.39-3Q656.79-3 657.24-3.25 657.69-3.5 657.99-3.95L657.99-3.95ZM641.74-2.55Q643.59-2.55 645.54-3.98 647.49-5.4 648.79-7.73 650.09-10.05 650.14-12.65L650.14-12.65Q648.29-12.75 646.24-12.48 644.19-12.2 642.79-11.6L642.79-11.6Q640.69-10.8 639.56-9.45 638.44-8.1 638.44-6.25L638.44-6.25Q638.44-4.65 639.24-3.6 640.04-2.55 641.74-2.55L641.74-2.55ZM669.99 11.55Q666.24 11.55 663.76 10.05 661.29 8.55 661.29 5.6L661.29 5.6Q661.29 3.9 662.26 2.85 663.24 1.8 664.69 1.8L664.69 1.8Q666.29 1.8 666.89 2.65L666.89 2.65Q665.49 3.75 665.49 5.75L665.49 5.75Q665.49 7.7 666.74 8.75 667.99 9.8 670.14 9.8L670.14 9.8Q674.14 9.8 676.11 6.75 678.09 3.7 678.09-2.05L678.09-2.05 678.09-5.55Q677.19-2.8 675.09-1.33 672.99 0.15 669.94 0.15L669.94 0.15Q665.69 0.15 663.39-2.88 661.09-5.9 661.09-12.4L661.09-12.4Q661.09-18.3 663.71-22.23 666.34-26.15 672.69-26.15L672.69-26.15Q675.54-26.15 678.21-25.35 680.89-24.55 682.59-22.85L682.59-22.85 682.59-2.25Q682.59 11.55 669.99 11.55L669.99 11.55ZM671.19-2.2Q674.69-2.2 676.36-5.15 678.04-8.1 678.04-12.4L678.04-12.4 678.09-22.5Q677.29-23.35 675.84-23.8 674.39-24.25 672.69-24.25L672.69-24.25Q668.74-24.25 667.31-20.93 665.89-17.6 665.89-11.95L665.89-11.95Q665.89-6.75 667.16-4.48 668.44-2.2 671.19-2.2L671.19-2.2ZM708.53-6.6Q709.28-6.3 709.28-5.45L709.28-5.45Q709.28-4.9 708.93-4.05L708.93-4.05Q708.03-1.75 705.63-0.55 703.23 0.65 699.93 0.65L699.93 0.65Q694.38 0.65 691.21-2.8 688.03-6.25 688.03-12.65L688.03-12.65Q688.03-18.95 691.18-22.55 694.33-26.15 700.13-26.15L700.13-26.15Q704.33-26.15 706.91-24.25 709.48-22.35 709.48-18.85L709.48-18.85Q709.48-15.15 706.48-13.2 703.48-11.25 698.23-11.25L698.23-11.25Q695.58-11.25 692.93-11.55L692.93-11.55Q693.53-2.35 701.08-2.35L701.08-2.35Q703.78-2.35 705.76-3.48 707.73-4.6 708.53-6.6L708.53-6.6ZM699.93-24.25Q696.68-24.25 694.81-21.45 692.93-18.65 692.88-13.4L692.88-13.4Q693.93-13.3 696.23-13.2L696.23-13.2Q700.03-13.2 702.33-14.58 704.63-15.95 704.63-19.5L704.63-19.5Q704.63-22.1 703.28-23.18 701.93-24.25 699.93-24.25L699.93-24.25ZM751.53-6Q751.53-2.5 752.23-0.45L752.23-0.45Q751.08 0.6 749.63 0.6L749.63 0.6Q748.48 0.6 747.76-0.08 747.03-0.75 747.03-1.9L747.03-1.9 747.03-15.2Q747.03-19.4 746.08-21.58 745.13-23.75 742.58-23.75L742.58-23.75Q741.03-23.75 739.61-22.55 738.18-21.35 737.23-18.85 736.28-16.35 736.23-12.55L736.23-12.55 736.23-6Q736.23-2.5 736.93-0.45L736.93-0.45Q735.78 0.6 734.38 0.6L734.38 0.6Q733.28 0.6 732.58-0.08 731.88-0.75 731.88-1.9L731.88-1.9 731.83-15.2Q731.83-19.6 730.83-21.68 729.83-23.75 727.23-23.75L727.23-23.75Q725.63-23.75 724.23-22.5 722.83-21.25 721.96-18.55 721.08-15.85 721.08-11.75L721.08-11.75Q721.08-5.65 721.18-3.75 721.28-1.85 721.83-0.4L721.83-0.4Q720.83 0.6 719.23 0.6L719.23 0.6Q718.08 0.6 717.36-0.13 716.63-0.85 716.63-2.1L716.63-2.1 716.58-19.95Q716.58-21.25 716.16-21.93 715.73-22.6 714.93-22.6L714.93-22.6Q714.43-22.6 714.01-22.35 713.58-22.1 713.38-21.65L713.38-21.65Q712.83-22.4 712.83-23.3L712.83-23.3Q712.83-24.55 713.76-25.33 714.68-26.1 716.13-26.1L716.13-26.1Q718.23-26.1 719.41-24.6 720.58-23.1 720.58-20.25L720.58-20.25 720.58-19.75Q721.58-22.75 723.66-24.45 725.73-26.15 728.63-26.15L728.63-26.15Q734.58-26.15 735.83-19.9L735.83-19.9Q736.78-22.85 738.91-24.5 741.03-26.15 743.93-26.15L743.93-26.15Q751.53-26.15 751.53-15.8L751.53-15.8 751.53-6ZM777.83-6.6Q778.58-6.3 778.58-5.45L778.58-5.45Q778.58-4.9 778.23-4.05L778.23-4.05Q777.33-1.75 774.93-0.55 772.53 0.65 769.23 0.65L769.23 0.65Q763.68 0.65 760.5-2.8 757.33-6.25 757.33-12.65L757.33-12.65Q757.33-18.95 760.48-22.55 763.63-26.15 769.43-26.15L769.43-26.15Q773.63-26.15 776.2-24.25 778.78-22.35 778.78-18.85L778.78-18.85Q778.78-15.15 775.78-13.2 772.78-11.25 767.53-11.25L767.53-11.25Q764.88-11.25 762.23-11.55L762.23-11.55Q762.83-2.35 770.38-2.35L770.38-2.35Q773.08-2.35 775.05-3.48 777.03-4.6 777.83-6.6L777.83-6.6ZM769.23-24.25Q765.98-24.25 764.1-21.45 762.23-18.65 762.18-13.4L762.18-13.4Q763.23-13.3 765.53-13.2L765.53-13.2Q769.33-13.2 771.63-14.58 773.93-15.95 773.93-19.5L773.93-19.5Q773.93-22.1 772.58-23.18 771.23-24.25 769.23-24.25L769.23-24.25ZM806.03-6Q806.13-2.15 806.78-0.45L806.78-0.45Q805.63 0.6 804.18 0.6L804.18 0.6Q803.03 0.6 802.28-0.08 801.53-0.75 801.53-1.9L801.53-1.9 801.53-15.2Q801.48-19.5 800.38-21.55 799.28-23.6 796.63-23.6L796.63-23.6Q794.93-23.6 793.4-22.38 791.88-21.15 790.9-18.55 789.93-15.95 789.93-12L789.93-12Q789.93-5.75 790.03-3.8 790.13-1.85 790.68-0.4L790.68-0.4Q790.28 0 789.6 0.3 788.93 0.6 788.08 0.6L788.08 0.6Q786.88 0.6 786.15-0.13 785.43-0.85 785.43-2.1L785.43-2.1 785.43-20.05Q785.38-21.45 785.05-22.03 784.73-22.6 784.03-22.6L784.03-22.6Q783.08-22.6 782.73-21.9L782.73-21.9Q782.13-22.75 782.13-23.55L782.13-23.55Q782.13-24.7 782.98-25.4 783.83-26.1 785.33-26.1L785.33-26.1Q787.33-26.1 788.4-24.73 789.48-23.35 789.48-20.7L789.48-20.7 789.48-20.1Q790.53-23 792.73-24.58 794.93-26.15 797.98-26.15L797.98-26.15Q806.03-26.15 806.03-15.8L806.03-15.8 806.03-6ZM820.57-25.45Q821.42-25.45 822.87-25.5 824.32-25.55 825.17-25.6L825.17-25.6 825.12-24.4Q825.07-23.8 824.72-23.48 824.37-23.15 823.87-23.15L823.87-23.15 818.92-23.15 818.92-21.35 818.87-5.65Q818.87-2.95 821.27-2.95L821.27-2.95Q821.97-2.95 822.65-3.2 823.32-3.45 823.52-3.9L823.52-3.9Q824.12-3.1 824.12-2.2L824.12-2.2Q824.12-0.95 822.87-0.2 821.62 0.55 819.62 0.55L819.62 0.55Q817.17 0.55 815.77-1 814.37-2.55 814.37-5.3L814.37-5.3 814.37-23.15 813.62-23.15Q811.62-23.15 810.62-23L810.62-23 810.67-24.25Q810.72-24.85 811.07-25.15 811.42-25.45 811.97-25.45L811.97-25.45 814.37-25.45 814.37-29.65Q814.37-30.8 815.1-31.45 815.82-32.1 817.02-32.1L817.02-32.1Q818.42-32.1 819.57-31.1L819.57-31.1Q819.02-29.2 818.97-25.45L818.97-25.45 820.57-25.45ZM851.47 0.7Q845.87 0.7 843.02-1.38 840.17-3.45 840.17-6.65L840.17-6.65Q840.17-9.75 843.17-9.75L843.17-9.75Q843.42-9.75 844.22-9.65L844.22-9.65Q844.07-9.05 844.07-8.3L844.07-8.3Q844.07-7.75 844.12-7.45L844.12-7.45Q844.32-4.7 846.39-3 848.47-1.3 852.02-1.3L852.02-1.3Q855.12-1.3 857.02-2.83 858.92-4.35 858.92-7.2L858.92-7.2Q858.92-9.05 858.07-10.45 857.22-11.85 855.62-13.03 854.02-14.2 851.17-15.8L851.17-15.8Q847.67-17.75 845.69-19.2 843.72-20.65 842.57-22.53 841.42-24.4 841.42-27L841.42-27Q841.42-31.2 844.47-33.27 847.52-35.35 852.27-35.35L852.27-35.35Q856.82-35.35 859.59-33.73 862.37-32.1 862.37-29.25L862.37-29.25Q862.37-26.95 860.07-26.75L860.07-26.75Q859.87-26.7 859.37-26.7L859.37-26.7Q858.77-26.7 858.47-26.8L858.47-26.8Q858.52-27.05 858.52-27.6L858.52-27.6Q858.52-28.4 858.37-29.05L858.37-29.05Q858.12-31.1 856.34-32.25 854.57-33.4 851.77-33.4L851.77-33.4Q849.27-33.4 847.49-32.25 845.72-31.1 845.72-28.5L845.72-28.5Q845.72-26.65 846.59-25.28 847.47-23.9 849.09-22.75 850.72-21.6 853.67-19.95L853.67-19.95Q856.77-18.3 858.84-16.8 860.92-15.3 862.17-13.25 863.42-11.2 863.42-8.55L863.42-8.55Q863.42-6.05 862.19-3.95 860.97-1.85 858.27-0.58 855.57 0.7 851.47 0.7L851.47 0.7ZM879.37 0.65Q873.87 0.65 870.79-2.88 867.72-6.4 867.72-12.7L867.72-12.7Q867.72-19.05 870.79-22.6 873.87-26.15 879.37-26.15L879.37-26.15Q884.87-26.15 887.92-22.6 890.97-19.05 890.97-12.7L890.97-12.7Q890.97-6.4 887.92-2.88 884.87 0.65 879.37 0.65L879.37 0.65ZM879.37-1.25Q882.67-1.25 884.39-4.2 886.12-7.15 886.12-12.7L886.12-12.7Q886.12-18.35 884.39-21.3 882.67-24.25 879.37-24.25L879.37-24.25Q876.02-24.25 874.29-21.3 872.57-18.35 872.57-12.7L872.57-12.7Q872.57-7.15 874.29-4.2 876.02-1.25 879.37-1.25L879.37-1.25ZM901.96 0.5Q899.61 0.5 898.29-1.05 896.96-2.6 896.96-5.35L896.96-5.35 896.96-34.05Q896.96-35.25 897.69-35.9 898.41-36.55 899.61-36.55L899.61-36.55Q901.16-36.55 902.21-35.5L902.21-35.5Q901.76-34.05 901.64-32 901.51-29.95 901.51-25.75L901.51-25.75 901.46-5.65Q901.46-3 903.36-3L903.36-3Q903.91-3 904.41-3.25 904.91-3.5 905.11-3.95L905.11-3.95Q905.71-3.15 905.71-2.25L905.71-2.25Q905.71-1.05 904.61-0.28 903.51 0.5 901.96 0.5L901.96 0.5ZM933.56-3.65Q934.11-2.9 934.11-2L934.11-2Q934.11-0.85 933.29-0.18 932.46 0.5 930.96 0.5L930.96 0.5Q928.96 0.5 927.89-0.85 926.81-2.2 926.81-4.85L926.81-4.85 926.81-5.5Q925.81-2.55 923.64-0.93 921.46 0.7 918.46 0.7L918.46 0.7Q914.36 0.7 912.49-1.7 910.61-4.1 910.61-9.75L910.61-9.75 910.61-19.55Q910.61-23.05 909.91-25.1L909.91-25.1Q911.16-26.15 912.51-26.15L912.51-26.15Q913.66-26.15 914.39-25.48 915.11-24.8 915.11-23.65L915.11-23.65 915.11-10.35Q915.11-5.65 916.16-3.68 917.21-1.7 919.81-1.7L919.81-1.7Q921.51-1.7 922.99-2.95 924.46-4.2 925.41-6.85 926.36-9.5 926.36-13.55L926.36-13.55Q926.36-19.8 926.26-21.73 926.16-23.65 925.61-25.15L925.61-25.15Q926.76-26.15 928.21-26.15L928.21-26.15Q929.31-26.15 930.06-25.43 930.81-24.7 930.81-23.45L930.81-23.45 930.86-5.5Q930.86-4.1 931.19-3.53 931.51-2.95 932.21-2.95L932.21-2.95Q933.16-2.95 933.56-3.65L933.56-3.65ZM946.11-25.45Q946.96-25.45 948.41-25.5 949.86-25.55 950.71-25.6L950.71-25.6 950.66-24.4Q950.61-23.8 950.26-23.48 949.91-23.15 949.41-23.15L949.41-23.15 944.46-23.15 944.46-21.35 944.41-5.65Q944.41-2.95 946.81-2.95L946.81-2.95Q947.51-2.95 948.18-3.2 948.86-3.45 949.06-3.9L949.06-3.9Q949.66-3.1 949.66-2.2L949.66-2.2Q949.66-0.95 948.41-0.2 947.16 0.55 945.16 0.55L945.16 0.55Q942.71 0.55 941.31-1 939.91-2.55 939.91-5.3L939.91-5.3 939.91-23.15 939.16-23.15Q937.16-23.15 936.16-23L936.16-23 936.21-24.25Q936.26-24.85 936.61-25.15 936.96-25.45 937.51-25.45L937.51-25.45 939.91-25.45 939.91-29.65Q939.91-30.8 940.63-31.45 941.36-32.1 942.56-32.1L942.56-32.1Q943.96-32.1 945.11-31.1L945.11-31.1Q944.56-29.2 944.51-25.45L944.51-25.45 946.11-25.45ZM958.86-29.75Q957.61-29.75 956.76-30.6 955.91-31.45 955.91-32.65L955.91-32.65Q955.91-33.9 956.76-34.75 957.61-35.6 958.86-35.6L958.86-35.6Q960.06-35.6 960.91-34.75 961.76-33.9 961.76-32.65L961.76-32.65Q961.76-31.45 960.91-30.6 960.06-29.75 958.86-29.75L958.86-29.75ZM961.31-6Q961.31-2.3 962.01-0.45L962.01-0.45Q960.96 0.6 959.41 0.6L959.41 0.6Q958.31 0.6 957.58-0.08 956.86-0.75 956.86-1.9L956.86-1.9 956.81-19.55Q956.81-23.3 956.11-25.15L956.11-25.15Q957.41-26.15 958.71-26.15L958.71-26.15Q959.86-26.15 960.56-25.5 961.26-24.85 961.26-23.7L961.26-23.7 961.31-6ZM979.3 0.65Q973.8 0.65 970.73-2.88 967.65-6.4 967.65-12.7L967.65-12.7Q967.65-19.05 970.73-22.6 973.8-26.15 979.3-26.15L979.3-26.15Q984.8-26.15 987.85-22.6 990.9-19.05 990.9-12.7L990.9-12.7Q990.9-6.4 987.85-2.88 984.8 0.65 979.3 0.65L979.3 0.65ZM979.3-1.25Q982.6-1.25 984.33-4.2 986.05-7.15 986.05-12.7L986.05-12.7Q986.05-18.35 984.33-21.3 982.6-24.25 979.3-24.25L979.3-24.25Q975.95-24.25 974.23-21.3 972.5-18.35 972.5-12.7L972.5-12.7Q972.5-7.15 974.23-4.2 975.95-1.25 979.3-1.25L979.3-1.25ZM1018.15-6Q1018.25-2.15 1018.9-0.45L1018.9-0.45Q1017.75 0.6 1016.3 0.6L1016.3 0.6Q1015.15 0.6 1014.4-0.08 1013.65-0.75 1013.65-1.9L1013.65-1.9 1013.65-15.2Q1013.6-19.5 1012.5-21.55 1011.4-23.6 1008.75-23.6L1008.75-23.6Q1007.05-23.6 1005.53-22.38 1004-21.15 1003.03-18.55 1002.05-15.95 1002.05-12L1002.05-12Q1002.05-5.75 1002.15-3.8 1002.25-1.85 1002.8-0.4L1002.8-0.4Q1002.4 0 1001.73 0.3 1001.05 0.6 1000.2 0.6L1000.2 0.6Q999 0.6 998.28-0.13 997.55-0.85 997.55-2.1L997.55-2.1 997.55-20.05Q997.5-21.45 997.18-22.03 996.85-22.6 996.15-22.6L996.15-22.6Q995.2-22.6 994.85-21.9L994.85-21.9Q994.25-22.75 994.25-23.55L994.25-23.55Q994.25-24.7 995.1-25.4 995.95-26.1 997.45-26.1L997.45-26.1Q999.45-26.1 1000.53-24.73 1001.6-23.35 1001.6-20.7L1001.6-20.7 1001.6-20.1Q1002.65-23 1004.85-24.58 1007.05-26.15 1010.1-26.15L1010.1-26.15Q1018.15-26.15 1018.15-15.8L1018.15-15.8 1018.15-6Z" opacity="1" transform="matrix(1,0,0,1,0,0)" fill="#ffffff" class="slogan-text-1" data-fill-palette-color="secondary" id="text-1"></path></svg></g></svg></g></svg></g></svg></g><g transform="matrix(1,0,0,1,103.800372768193,0)"><svg viewBox="0 0 187.91925446361398 169.83958606284446" height="169.83958606284446" width="187.91925446361398"><g><svg xmlns="http://www.w3.org/2000/svg" xmlns:xlink="http://www.w3.org/1999/xlink" version="1.1" x="8" y="0" viewBox="1 1.75 62 61.25" enable-background="new 0 0 64 64" xml:space="preserve" height="169.83958606284446" width="171.91925446361398" class="icon-icon-0" data-fill-palette-color="accent" id="icon-0"><g fill="#ffffff" data-fill-palette-color="accent"><g fill="#ffffff" data-fill-palette-color="accent"><path d="M5 31H59A1 1 0 0 0 60 30V26A1 1 0 0 0 59 25H50V22A1 1 0 0 0 49 21H46.133C44.145 15.393 38.928 11.444 33 11.041V8C33.764 8 34.095 8.166 34.553 8.395 35.092 8.664 35.764 9 37 9 40.678 9 41.898 5.467 41.949 5.316A1.001 1.001 0 0 0 40.553 4.105C39.78 4.492 39.282 4.656 38.887 4.656 38.463 4.656 37.906 4.491 36.707 3.292 35.432 2.018 34.123 1.75 33.25 1.75 32.386 1.75 31.785 2 31.616 2.078L31.605 2.083 31.553 2.106A1 1 0 0 0 31.307 2.284C31.291 2.299 31.281 2.318 31.266 2.334A1 1 0 0 0 31.07 2.654 1 1 0 0 0 31 3V11.042C25.071 11.444 19.854 15.393 17.867 21H15A1 1 0 0 0 14 22V25H5A1 1 0 0 0 4 26V30A1 1 0 0 0 5 31M33 3.763C33.077 3.755 33.161 3.75 33.25 3.75 33.971 3.75 34.658 4.072 35.293 4.707 36.502 5.917 37.45 6.501 38.449 6.629A2.9 2.9 0 0 1 37 7C36.236 7 35.905 6.834 35.447 6.605 34.908 6.336 34.236 6 33 6zM32 13C37.251 13 42.007 16.229 44.003 21H19.997C21.993 16.229 26.749 13 32 13M6 27H20A1 1 0 0 0 20 25H16V23H48V25H44A1 1 0 0 0 44 27H58V29H6z" fill="#ffffff" data-fill-palette-color="accent"></path><path d="M34 49A1 1 0 0 0 35 48V33A1 1 0 0 0 34 32H30A1 1 0 0 0 29 33V48A1 1 0 0 0 30 49zM31 34H33V47H31z" fill="#ffffff" data-fill-palette-color="accent"></path><path d="M43 49A1 1 0 0 0 44 48V33A1 1 0 0 0 43 32H39A1 1 0 0 0 38 33V48A1 1 0 0 0 39 49zM40 34H42V47H40z" fill="#ffffff" data-fill-palette-color="accent"></path><path d="M52 49A1 1 0 0 0 53 48V33A1 1 0 0 0 52 32H48A1 1 0 0 0 47 33V48A1 1 0 0 0 48 49zM49 34H51V47H49z" fill="#ffffff" data-fill-palette-color="accent"></path><path d="M25 49A1 1 0 0 0 26 48V33A1 1 0 0 0 25 32H21A1 1 0 0 0 20 33V48A1 1 0 0 0 21 49zM22 34H24V47H22z" fill="#ffffff" data-fill-palette-color="accent"></path><path d="M16 49A1 1 0 0 0 17 48V33A1 1 0 0 0 16 32H12A1 1 0 0 0 11 33V48A1 1 0 0 0 12 49zM13 34H15V47H13z" fill="#ffffff" data-fill-palette-color="accent"></path><path d="M6 51V55A1 1 0 0 0 7 56H57A1 1 0 0 0 58 55V51A1 1 0 0 0 57 50H7A1 1 0 0 0 6 51M8 52H56V54H8z" fill="#ffffff" data-fill-palette-color="accent"></path><path d="M62 57H2A1 1 0 0 0 1 58V62A1 1 0 0 0 2 63H62A1 1 0 0 0 63 62V58A1 1 0 0 0 62 57M61 61H3V59H61z" fill="#ffffff" data-fill-palette-color="accent"></path></g></g></svg></g></svg></g><g><rect width="65.49156925756762" height="5.293439195216602" y="163.54614686762787" x="291.71962723180695" fill="#ffffff" data-fill-palette-color="accent"></rect><rect width="65.49156925756762" height="5.293439195216602" y="163.54614686762787" x="38.30880351062538" fill="#ffffff" data-fill-palette-color="accent"></rect><rect width="65.49156925756762" height="5.293439195216602" y="152.95926847719466" x="291.71962723180695" fill="#ffffff" data-fill-palette-color="accent"></rect><rect width="65.49156925756762" height="5.293439195216602" y="152.95926847719466" x="38.30880351062538" fill="#ffffff" data-fill-palette-color="accent"></rect></g></svg></g><defs></defs></svg><rect width="318.9023929787492" height="247.2" fill="none" stroke="none" visibility="hidden"></rect></g></svg></g></svg>