<svg xmlns="http://www.w3.org/2000/svg" version="1.1" xmlns:xlink="http://www.w3.org/1999/xlink" xmlns:svgjs="http://svgjs.dev/svgjs" width="2000" height="1171" viewBox="0 0 2000 1171"><g transform="matrix(1,0,0,1,-1.2121212121212466,-0.8162015317376472)"><svg viewBox="0 0 396 232" data-background-color="#001f3f" preserveAspectRatio="xMidYMid meet" height="1171" width="2000" xmlns="http://www.w3.org/2000/svg" xmlns:xlink="http://www.w3.org/1999/xlink"><g id="tight-bounds" transform="matrix(1,0,0,1,0.2400000000000091,0.16170687904622127)"><svg viewBox="0 0 395.52 231.67658624190756" height="231.67658624190756" width="395.52"><g><svg viewBox="0 0 395.52 231.67658624190756" height="231.67658624190756" width="395.52"><g transform="matrix(1,0,0,1,0,140.70502141329357)"><svg viewBox="0 0 395.52 90.97156482861399" height="90.97156482861399" width="395.52"><g id="textblocktransform"><svg viewBox="0 0 395.52 90.97156482861399" height="90.97156482861399" width="395.52" id="textblock"><g><svg viewBox="0 0 395.52 90.97156482861399" height="90.97156482861399" width="395.52"><g transform="matrix(1,0,0,1,0,0)"><svg width="395.52" viewBox="-8.95 -47.55 302.93 70.44999999999999" height="90.97156482861399" data-palette-color="#0074d9"><path d="M20-34.55L20-34.55Q12.25-34.55 12.25-19.6L12.25-19.6 12.25-15.65Q12.25-8.55 14.3-4.53 16.35-0.5 20.35-0.5L20.35-0.5Q25.85-0.5 30.45-11.2L30.45-11.2 31.35-11.2 31-0.05 30.45-0.05Q30.15-0.6 29.9-0.83 29.65-1.05 29.18-1.05 28.7-1.05 25.55-0.28 22.4 0.5 19.15 0.5L19.15 0.5Q11 0.5 6.53-3.9 2.05-8.3 2.05-17.13 2.05-25.95 6.73-30.75 11.4-35.55 19.3-35.55L19.3-35.55Q22.35-35.55 25.28-34.77 28.2-34 28.7-34 29.2-34 29.45-34.23 29.7-34.45 30-35L30-35 30.55-35 30.95-24.15 30.05-24.15Q27.8-29.2 25.43-31.88 23.05-34.55 20-34.55ZM47-11.75L47-11.75 48.45-11.75 48.45-15.6Q48.45-20.35 47.92-21.98 47.4-23.6 45.9-23.6L45.9-23.6Q45-23.6 44.27-23.13 43.55-22.65 43.55-21.83 43.55-21 43.85-20.15L43.85-20.15 45.1-20.15Q45.5-19.1 45.5-17.63 45.5-16.15 44.25-15.08 43-14 41.1-14L41.1-14Q36.8-14 36.8-18.15L36.8-18.15Q36.8-24.3 47.25-24.3L47.25-24.3Q53.2-24.3 55.47-22.28 57.75-20.25 57.75-14.85L57.75-14.85 57.75-4.7Q57.75-2.1 59.2-2.1L59.2-2.1Q60.9-2.1 61.2-7.25L61.2-7.25 61.95-7.2Q61.75-2.8 60.3-1.15 58.85 0.5 55.55 0.5L55.55 0.5Q49.55 0.5 48.65-3.2L48.65-3.2Q48-1.3 46.7-0.4 45.4 0.5 42.9 0.5L42.9 0.5Q35.5 0.5 35.5-5.55L35.5-5.55Q35.5-9.1 38.32-10.43 41.15-11.75 47-11.75ZM45-5.6Q45-3 45.27-2.25 45.55-1.5 46.32-1.5 47.1-1.5 47.77-2.78 48.45-4.05 48.45-6.3L48.45-6.3 48.45-10.95 48.1-10.95Q45-10.95 45-6.4L45-6.4 45-5.6ZM62.45-22.9L62.45-23.8 74.5-23.8 74.5-19.2Q76.15-24.3 81.77-24.3 87.4-24.3 88.6-18.9L88.6-18.9Q90.35-24.3 95.95-24.3L95.95-24.3Q103.3-24.3 103.3-15.95L103.3-15.95 103.3-0.9 106.1-0.9 106.1 0 92.25 0 92.25-0.9 94-0.9 94-17.15Q94-20.95 93.35-21.6L93.35-21.6Q93.05-21.9 92.55-21.9L92.55-21.9Q91.1-21.9 90-19.95 88.9-18 88.9-15L88.9-15 88.9-0.9 90.7-0.9 90.7 0 77.85 0 77.85-0.9 79.6-0.9 79.6-17.15Q79.6-20.95 78.95-21.6L78.95-21.6Q78.65-21.9 78.15-21.9L78.15-21.9Q76.75-21.9 75.62-19.78 74.5-17.65 74.5-14.7L74.5-14.7 74.5-0.9 76.3-0.9 76.3 0 62.45 0 62.45-0.9 65.2-0.9 65.2-22.9 62.45-22.9ZM125.09-13.45Q125.09-18.6 124.59-20.38 124.09-22.15 122.64-22.15 121.19-22.15 120.04-20.28 118.89-18.4 118.89-15.25L118.89-15.25 118.89-6.1Q118.89-3.95 119.74-2.45 120.59-0.95 122.24-0.95 123.89-0.95 124.49-3.15 125.09-5.35 125.09-10.85L125.09-10.85 125.09-13.45ZM106.94-23.8L118.79-23.8 118.79-19.85Q120.74-24.3 125.69-24.3L125.69-24.3Q129.99-24.3 132.37-21.2 134.74-18.1 134.74-11.8 134.74-5.5 132.17-2.5 129.59 0.5 124.44 0.5L124.44 0.5Q122.04 0.5 120.84-0.1 119.64-0.7 118.89-1.95L118.89-1.95 118.89 11 125.34 11 125.34 11.9 106.84 11.9 106.84 11 109.59 11 109.59-22.9 106.94-22.9 106.94-23.8ZM165.49-0.9L165.49 0 154.09 0 153.54-3.65Q152.74-1.65 151.17-0.58 149.59 0.5 146.49 0.5L146.49 0.5Q138.74 0.5 138.74-7.85L138.74-7.85 138.74-22.9 135.94-22.9 135.94-23.8 148.04-23.8 148.04-6.65Q148.04-3.65 148.47-2.7 148.89-1.75 150.17-1.75 151.44-1.75 152.44-3.3 153.44-4.85 153.44-7.6L153.44-7.6 153.44-22.9 151.14-22.9 151.14-23.8 162.74-23.8 162.74-0.9 165.49-0.9ZM168.24 0.5L167.64 0.5 167.64-8.45 168.24-8.45Q169.54-4.1 171.74-2.35 173.94-0.6 177.24-0.6L177.24-0.6Q182.34-0.6 182.34-3.85L182.34-3.85Q182.34-5.25 181.09-5.95L181.09-5.95Q179.14-7.05 176.09-7.65L176.09-7.65Q172.69-8.55 170.39-10.05L170.39-10.05Q167.64-11.85 167.64-15.75 167.64-19.65 170.04-21.98 172.44-24.3 176.44-24.3L176.44-24.3Q178.89-24.3 181.49-23.15L181.49-23.15Q182.44-22.75 182.94-22.75 183.44-22.75 183.79-23.1 184.14-23.45 184.64-24.4L184.64-24.4 185.19-24.4 185.19-16.75 184.59-16.75Q182.04-23.25 176.69-23.25L176.69-23.25Q174.34-23.25 173.19-22.43 172.04-21.6 172.04-20.35L172.04-20.35Q172.04-19.6 172.39-19.18 172.74-18.75 172.94-18.55 173.14-18.35 173.59-18.13 174.04-17.9 174.34-17.78 174.64-17.65 175.26-17.45 175.89-17.25 176.19-17.2L176.19-17.2Q179.59-16.35 181.09-15.73 182.59-15.1 183.94-14.2L183.94-14.2Q186.69-12.3 186.69-8.08 186.69-3.85 184.19-1.68 181.69 0.5 177.34 0.5L177.34 0.5Q174.24 0.5 171.34-0.95L171.34-0.95Q170.74-1.35 170.39-1.35L170.39-1.35Q169.29-1.35 168.24 0.5L168.24 0.5ZM203.94-0.55L203.94-0.55Q206.44-0.55 208.36-1.9 210.28-3.25 210.28-5.98 210.28-8.7 208.21-10.15 206.13-11.6 202.31-12.68 198.49-13.75 196.76-14.55 195.03-15.35 193.49-16.65L193.49-16.65Q190.38-19.25 190.38-24.7L190.38-24.7Q190.38-29.15 193.56-32.35 196.74-35.55 202.24-35.55L202.24-35.55Q204.88-35.55 207.76-34.77 210.63-34 211.34-34 212.03-34 212.59-35L212.59-35 213.13-35 213.49-24.9 212.69-24.9Q210.28-29.25 207.66-31.88 205.03-34.5 201.96-34.5 198.88-34.5 197.19-33.08 195.49-31.65 195.49-29.28 195.49-26.9 197.51-25.63 199.53-24.35 202.49-23.55 205.44-22.75 206.36-22.45 207.28-22.15 208.66-21.63 210.03-21.1 210.91-20.53 211.78-19.95 212.76-19.07 213.74-18.2 214.28-17.15L214.28-17.15Q215.63-14.75 215.63-11.45L215.63-11.45Q215.63-6.05 212.26-2.78 208.88 0.5 203.38 0.5L203.38 0.5Q200.53 0.5 196.86-0.25 193.19-1 192.78-1L192.78-1Q192.09-1 191.44 0.5L191.44 0.5 190.74 0.5 190.24-11.4 191.09-11.4Q193.28-7.05 196.71-3.8 200.13-0.55 203.94-0.55ZM246.93-0.9L246.93 0 235.53 0 234.98-3.65Q234.18-1.65 232.61-0.58 231.03 0.5 227.93 0.5L227.93 0.5Q220.18 0.5 220.18-7.85L220.18-7.85 220.18-22.9 217.38-22.9 217.38-23.8 229.48-23.8 229.48-6.65Q229.48-3.65 229.91-2.7 230.33-1.75 231.61-1.75 232.88-1.75 233.88-3.3 234.88-4.85 234.88-7.6L234.88-7.6 234.88-22.9 232.58-22.9 232.58-23.8 244.18-23.8 244.18-0.9 246.93-0.9ZM255.28-27.25Q252.63-27.25 251.5-28.6 250.38-29.95 250.38-31.95 250.38-33.95 251.61-35.25 252.83-36.55 255.33-36.55 257.83-36.55 259.13-35.38 260.43-34.2 260.43-32.02 260.43-29.85 259.18-28.55 257.93-27.25 255.28-27.25ZM247.73-22.9L247.73-23.8 259.98-23.8 259.98-0.9 262.78-0.9 262.78 0 247.93 0 247.93-0.9 250.68-0.9 250.68-22.9 247.73-22.9ZM266.28-7.15L266.28-7.15 266.28-22.9 263.53-22.9 263.53-23.8 266.28-23.8 266.28-30.25 275.58-32.55 275.58-23.8 282.08-23.8 282.08-22.9 275.58-22.9 275.58-6.05Q275.58-3.7 276.05-2.6 276.53-1.5 278.03-1.5 279.53-1.5 280.65-3 281.78-4.5 282.13-7.1L282.13-7.1 282.98-7Q282.58-3.55 280.78-1.53 278.98 0.5 274.83 0.5 270.68 0.5 268.48-1.15 266.28-2.8 266.28-7.15Z" opacity="1" transform="matrix(1,0,0,1,0,0)" fill="#0074d9" class="wordmark-text-0" data-fill-palette-color="primary" id="text-0"></path></svg></g></svg></g></svg></g></svg></g><g transform="matrix(1,0,0,1,126.12891787122479,0)"><svg viewBox="0 0 143.2621642575504 125.72270259314455" height="125.72270259314455" width="143.2621642575504"><g><svg xmlns="http://www.w3.org/2000/svg" xmlns:xlink="http://www.w3.org/1999/xlink" version="1.1" x="8.000000000000007" y="0" viewBox="1 1.75 62 61.25" enable-background="new 0 0 64 64" xml:space="preserve" height="125.72270259314455" width="127.2621642575504" class="icon-icon-0" data-fill-palette-color="accent" id="icon-0"><g fill="#0074d9" data-fill-palette-color="accent"><g fill="#0074d9" data-fill-palette-color="accent"><path d="M5 31H59A1 1 0 0 0 60 30V26A1 1 0 0 0 59 25H50V22A1 1 0 0 0 49 21H46.133C44.145 15.393 38.928 11.444 33 11.041V8C33.764 8 34.095 8.166 34.553 8.395 35.092 8.664 35.764 9 37 9 40.678 9 41.898 5.467 41.949 5.316A1.001 1.001 0 0 0 40.553 4.105C39.78 4.492 39.282 4.656 38.887 4.656 38.463 4.656 37.906 4.491 36.707 3.292 35.432 2.018 34.123 1.75 33.25 1.75 32.386 1.75 31.785 2 31.616 2.078L31.605 2.083 31.553 2.106A1 1 0 0 0 31.307 2.284C31.291 2.299 31.281 2.318 31.266 2.334A1 1 0 0 0 31.07 2.654 1 1 0 0 0 31 3V11.042C25.071 11.444 19.854 15.393 17.867 21H15A1 1 0 0 0 14 22V25H5A1 1 0 0 0 4 26V30A1 1 0 0 0 5 31M33 3.763C33.077 3.755 33.161 3.75 33.25 3.75 33.971 3.75 34.658 4.072 35.293 4.707 36.502 5.917 37.45 6.501 38.449 6.629A2.9 2.9 0 0 1 37 7C36.236 7 35.905 6.834 35.447 6.605 34.908 6.336 34.236 6 33 6zM32 13C37.251 13 42.007 16.229 44.003 21H19.997C21.993 16.229 26.749 13 32 13M6 27H20A1 1 0 0 0 20 25H16V23H48V25H44A1 1 0 0 0 44 27H58V29H6z" fill="#0074d9" data-fill-palette-color="accent"></path><path d="M34 49A1 1 0 0 0 35 48V33A1 1 0 0 0 34 32H30A1 1 0 0 0 29 33V48A1 1 0 0 0 30 49zM31 34H33V47H31z" fill="#0074d9" data-fill-palette-color="accent"></path><path d="M43 49A1 1 0 0 0 44 48V33A1 1 0 0 0 43 32H39A1 1 0 0 0 38 33V48A1 1 0 0 0 39 49zM40 34H42V47H40z" fill="#0074d9" data-fill-palette-color="accent"></path><path d="M52 49A1 1 0 0 0 53 48V33A1 1 0 0 0 52 32H48A1 1 0 0 0 47 33V48A1 1 0 0 0 48 49zM49 34H51V47H49z" fill="#0074d9" data-fill-palette-color="accent"></path><path d="M25 49A1 1 0 0 0 26 48V33A1 1 0 0 0 25 32H21A1 1 0 0 0 20 33V48A1 1 0 0 0 21 49zM22 34H24V47H22z" fill="#0074d9" data-fill-palette-color="accent"></path><path d="M16 49A1 1 0 0 0 17 48V33A1 1 0 0 0 16 32H12A1 1 0 0 0 11 33V48A1 1 0 0 0 12 49zM13 34H15V47H13z" fill="#0074d9" data-fill-palette-color="accent"></path><path d="M6 51V55A1 1 0 0 0 7 56H57A1 1 0 0 0 58 55V51A1 1 0 0 0 57 50H7A1 1 0 0 0 6 51M8 52H56V54H8z" fill="#0074d9" data-fill-palette-color="accent"></path><path d="M62 57H2A1 1 0 0 0 1 58V62A1 1 0 0 0 2 63H62A1 1 0 0 0 63 62V58A1 1 0 0 0 62 57M61 61H3V59H61z" fill="#0074d9" data-fill-palette-color="accent"></path></g></g></svg></g></svg></g><g><rect width="126.12891787122479" height="5.7232457892969295" y="118.99945680384762" x="269.3910821287752" fill="#0074d9" data-fill-palette-color="accent"></rect><rect width="126.12891787122479" height="5.7232457892969295" y="118.99945680384762" x="0" fill="#0074d9" data-fill-palette-color="accent"></rect><rect width="126.12891787122479" height="5.7232457892969295" y="107.55296522525376" x="269.3910821287752" fill="#0074d9" data-fill-palette-color="accent"></rect><rect width="126.12891787122479" height="5.7232457892969295" y="107.55296522525376" x="0" fill="#0074d9" data-fill-palette-color="accent"></rect></g></svg></g><defs></defs></svg><rect width="395.52" height="231.67658624190756" fill="none" stroke="none" visibility="hidden"></rect></g></svg></g></svg>