<svg xmlns="http://www.w3.org/2000/svg" version="1.1" xmlns:xlink="http://www.w3.org/1999/xlink" xmlns:svgjs="http://svgjs.dev/svgjs" width="2000" height="515" viewBox="0 0 2000 515"><g transform="matrix(1,0,0,1,-1.2121212121212466,-0.06201982513147186)"><svg viewBox="0 0 396 102" data-background-color="#ffffff" preserveAspectRatio="xMidYMid meet" height="515" width="2000" xmlns="http://www.w3.org/2000/svg" xmlns:xlink="http://www.w3.org/1999/xlink"><g id="tight-bounds" transform="matrix(1,0,0,1,0.2400000000000091,0.012283538181378617)"><svg viewBox="0 0 395.52 101.97543292363723" height="101.97543292363723" width="395.52"><g><svg viewBox="0 0 588.8778070842587 151.8281485551664" height="101.97543292363723" width="395.52"><g><rect width="5.293439195216602" height="110.41048429662968" x="161.9851726916661" y="20.70883212926836" fill="#172b4d" opacity="1" stroke-width="0" stroke="transparent" fill-opacity="1" class="rect-yte-0" data-fill-palette-color="primary" rx="1%" id="yte-0" data-palette-color="#172b4d"></rect></g><g><rect width="5.293439195216602" height="110.41048429662968" x="174.20719722093583" y="20.70883212926836" fill="#172b4d" opacity="1" stroke-width="0" stroke="transparent" fill-opacity="1" class="rect-yte-1" data-fill-palette-color="primary" rx="1%" id="yte-1" data-palette-color="#172b4d"></rect></g><g transform="matrix(1,0,0,1,193.3578070842587,20.983485075279873)"><svg viewBox="0 0 395.52 109.86117840460665" height="109.86117840460665" width="395.52"><g id="textblocktransform"><svg viewBox="0 0 395.52 109.86117840460665" height="109.86117840460665" width="395.52" id="textblock"><g><svg viewBox="0 0 395.52 84.13974598374354" height="84.13974598374354" width="395.52"><g transform="matrix(1,0,0,1,0,0)"><svg width="395.52" viewBox="-8.95 -47.55 327.44716101694917 70.44999999999999" height="84.13974598374354" data-palette-color="#172b4d"><path d="M20-34.55L20-34.55Q12.25-34.55 12.25-19.6L12.25-19.6 12.25-15.65Q12.25-8.55 14.3-4.53 16.35-0.5 20.35-0.5L20.35-0.5Q25.85-0.5 30.45-11.2L30.45-11.2 31.35-11.2 31-0.05 30.45-0.05Q30.15-0.6 29.9-0.83 29.65-1.05 29.18-1.05 28.7-1.05 25.55-0.28 22.4 0.5 19.15 0.5L19.15 0.5Q11 0.5 6.53-3.9 2.05-8.3 2.05-17.13 2.05-25.95 6.73-30.75 11.4-35.55 19.3-35.55L19.3-35.55Q22.35-35.55 25.28-34.77 28.2-34 28.7-34 29.2-34 29.45-34.23 29.7-34.45 30-35L30-35 30.55-35 30.95-24.15 30.05-24.15Q27.8-29.2 25.43-31.88 23.05-34.55 20-34.55ZM47-11.75L47-11.75 48.45-11.75 48.45-15.6Q48.45-20.35 47.92-21.98 47.4-23.6 45.9-23.6L45.9-23.6Q45-23.6 44.27-23.13 43.55-22.65 43.55-21.83 43.55-21 43.85-20.15L43.85-20.15 45.1-20.15Q45.5-19.1 45.5-17.63 45.5-16.15 44.25-15.08 43-14 41.1-14L41.1-14Q36.8-14 36.8-18.15L36.8-18.15Q36.8-24.3 47.25-24.3L47.25-24.3Q53.2-24.3 55.47-22.28 57.75-20.25 57.75-14.85L57.75-14.85 57.75-4.7Q57.75-2.1 59.2-2.1L59.2-2.1Q60.9-2.1 61.2-7.25L61.2-7.25 61.95-7.2Q61.75-2.8 60.3-1.15 58.85 0.5 55.55 0.5L55.55 0.5Q49.55 0.5 48.65-3.2L48.65-3.2Q48-1.3 46.7-0.4 45.4 0.5 42.9 0.5L42.9 0.5Q35.5 0.5 35.5-5.55L35.5-5.55Q35.5-9.1 38.32-10.43 41.15-11.75 47-11.75ZM45-5.6Q45-3 45.27-2.25 45.55-1.5 46.32-1.5 47.1-1.5 47.77-2.78 48.45-4.05 48.45-6.3L48.45-6.3 48.45-10.95 48.1-10.95Q45-10.95 45-6.4L45-6.4 45-5.6ZM62.45-22.9L62.45-23.8 74.5-23.8 74.5-19.2Q76.15-24.3 81.77-24.3 87.4-24.3 88.6-18.9L88.6-18.9Q90.35-24.3 95.95-24.3L95.95-24.3Q103.3-24.3 103.3-15.95L103.3-15.95 103.3-0.9 106.1-0.9 106.1 0 92.25 0 92.25-0.9 94-0.9 94-17.15Q94-20.95 93.35-21.6L93.35-21.6Q93.05-21.9 92.55-21.9L92.55-21.9Q91.1-21.9 90-19.95 88.9-18 88.9-15L88.9-15 88.9-0.9 90.7-0.9 90.7 0 77.85 0 77.85-0.9 79.6-0.9 79.6-17.15Q79.6-20.95 78.95-21.6L78.95-21.6Q78.65-21.9 78.15-21.9L78.15-21.9Q76.75-21.9 75.62-19.78 74.5-17.65 74.5-14.7L74.5-14.7 74.5-0.9 76.3-0.9 76.3 0 62.45 0 62.45-0.9 65.2-0.9 65.2-22.9 62.45-22.9ZM125.09-13.45Q125.09-18.6 124.59-20.38 124.09-22.15 122.64-22.15 121.19-22.15 120.04-20.28 118.89-18.4 118.89-15.25L118.89-15.25 118.89-6.1Q118.89-3.95 119.74-2.45 120.59-0.95 122.24-0.95 123.89-0.95 124.49-3.15 125.09-5.35 125.09-10.85L125.09-10.85 125.09-13.45ZM106.94-23.8L118.79-23.8 118.79-19.85Q120.74-24.3 125.69-24.3L125.69-24.3Q129.99-24.3 132.37-21.2 134.74-18.1 134.74-11.8 134.74-5.5 132.17-2.5 129.59 0.5 124.44 0.5L124.44 0.5Q122.04 0.5 120.84-0.1 119.64-0.7 118.89-1.95L118.89-1.95 118.89 11 125.34 11 125.34 11.9 106.84 11.9 106.84 11 109.59 11 109.59-22.9 106.94-22.9 106.94-23.8ZM165.49-0.9L165.49 0 154.09 0 153.54-3.65Q152.74-1.65 151.17-0.58 149.59 0.5 146.49 0.5L146.49 0.5Q138.74 0.5 138.74-7.85L138.74-7.85 138.74-22.9 135.94-22.9 135.94-23.8 148.04-23.8 148.04-6.65Q148.04-3.65 148.47-2.7 148.89-1.75 150.17-1.75 151.44-1.75 152.44-3.3 153.44-4.85 153.44-7.6L153.44-7.6 153.44-22.9 151.14-22.9 151.14-23.8 162.74-23.8 162.74-0.9 165.49-0.9ZM168.24 0.5L167.64 0.5 167.64-8.45 168.24-8.45Q169.54-4.1 171.74-2.35 173.94-0.6 177.24-0.6L177.24-0.6Q182.34-0.6 182.34-3.85L182.34-3.85Q182.34-5.25 181.09-5.95L181.09-5.95Q179.14-7.05 176.09-7.65L176.09-7.65Q172.69-8.55 170.39-10.05L170.39-10.05Q167.64-11.85 167.64-15.75 167.64-19.65 170.04-21.98 172.44-24.3 176.44-24.3L176.44-24.3Q178.89-24.3 181.49-23.15L181.49-23.15Q182.44-22.75 182.94-22.75 183.44-22.75 183.79-23.1 184.14-23.45 184.64-24.4L184.64-24.4 185.19-24.4 185.19-16.75 184.59-16.75Q182.04-23.25 176.69-23.25L176.69-23.25Q174.34-23.25 173.19-22.43 172.04-21.6 172.04-20.35L172.04-20.35Q172.04-19.6 172.39-19.18 172.74-18.75 172.94-18.55 173.14-18.35 173.59-18.13 174.04-17.9 174.34-17.78 174.64-17.65 175.26-17.45 175.89-17.25 176.19-17.2L176.19-17.2Q179.59-16.35 181.09-15.73 182.59-15.1 183.94-14.2L183.94-14.2Q186.69-12.3 186.69-8.08 186.69-3.85 184.19-1.68 181.69 0.5 177.34 0.5L177.34 0.5Q174.24 0.5 171.34-0.95L171.34-0.95Q170.74-1.35 170.39-1.35L170.39-1.35Q169.29-1.35 168.24 0.5L168.24 0.5ZM203.94-0.55L203.94-0.55Q206.44-0.55 208.36-1.9 210.28-3.25 210.28-5.98 210.28-8.7 208.21-10.15 206.13-11.6 202.31-12.68 198.49-13.75 196.76-14.55 195.03-15.35 193.49-16.65L193.49-16.65Q190.38-19.25 190.38-24.7L190.38-24.7Q190.38-29.15 193.56-32.35 196.74-35.55 202.24-35.55L202.24-35.55Q204.88-35.55 207.76-34.77 210.63-34 211.34-34 212.03-34 212.59-35L212.59-35 213.13-35 213.49-24.9 212.69-24.9Q210.28-29.25 207.66-31.88 205.03-34.5 201.96-34.5 198.88-34.5 197.19-33.08 195.49-31.65 195.49-29.28 195.49-26.9 197.51-25.63 199.53-24.35 202.49-23.55 205.44-22.75 206.36-22.45 207.28-22.15 208.66-21.63 210.03-21.1 210.91-20.53 211.78-19.95 212.76-19.07 213.74-18.2 214.28-17.15L214.28-17.15Q215.63-14.75 215.63-11.45L215.63-11.45Q215.63-6.05 212.26-2.78 208.88 0.5 203.38 0.5L203.38 0.5Q200.53 0.5 196.86-0.25 193.19-1 192.78-1L192.78-1Q192.09-1 191.44 0.5L191.44 0.5 190.74 0.5 190.24-11.4 191.09-11.4Q193.28-7.05 196.71-3.8 200.13-0.55 203.94-0.55ZM246.93-0.9L246.93 0 235.53 0 234.98-3.65Q234.18-1.65 232.61-0.58 231.03 0.5 227.93 0.5L227.93 0.5Q220.18 0.5 220.18-7.85L220.18-7.85 220.18-22.9 217.38-22.9 217.38-23.8 229.48-23.8 229.48-6.65Q229.48-3.65 229.91-2.7 230.33-1.75 231.61-1.75 232.88-1.75 233.88-3.3 234.88-4.85 234.88-7.6L234.88-7.6 234.88-22.9 232.58-22.9 232.58-23.8 244.18-23.8 244.18-0.9 246.93-0.9ZM255.28-27.25Q252.63-27.25 251.5-28.6 250.38-29.95 250.38-31.95 250.38-33.95 251.61-35.25 252.83-36.55 255.33-36.55 257.83-36.55 259.13-35.38 260.43-34.2 260.43-32.02 260.43-29.85 259.18-28.55 257.93-27.25 255.28-27.25ZM247.73-22.9L247.73-23.8 259.98-23.8 259.98-0.9 262.78-0.9 262.78 0 247.93 0 247.93-0.9 250.68-0.9 250.68-22.9 247.73-22.9ZM266.28-7.15L266.28-7.15 266.28-22.9 263.53-22.9 263.53-23.8 266.28-23.8 266.28-30.25 275.58-32.55 275.58-23.8 282.08-23.8 282.08-22.9 275.58-22.9 275.58-6.05Q275.58-3.7 276.05-2.6 276.53-1.5 278.03-1.5 279.53-1.5 280.65-3 281.78-4.5 282.13-7.1L282.13-7.1 282.98-7Q282.58-3.55 280.78-1.53 278.98 0.5 274.83 0.5 270.68 0.5 268.48-1.15 266.28-2.8 266.28-7.15ZM296.63 0.5Q290.18 0.5 286.95-2.83 283.73-6.15 283.73-12.08 283.73-18 287.35-21.15 290.98-24.3 296.58-24.3L296.58-24.3Q307.93-24.3 307.48-12.9L307.48-12.9 293.38-12.9 293.38-10.95Q293.38-6.05 294.63-3.55 295.88-1.05 298.98-1.05L298.98-1.05Q304.78-1.05 306.58-7.25L306.58-7.25 307.48-7.1Q306.53-3.5 304.05-1.5 301.58 0.5 296.63 0.5L296.63 0.5ZM293.43-16.35L293.43-13.9 298.58-13.9 298.58-16.35Q298.58-20.4 298.1-21.88 297.63-23.35 296.2-23.35 294.78-23.35 294.1-21.78 293.43-20.2 293.43-16.35L293.43-16.35Z" opacity="1" transform="matrix(1,0,0,1,0,0)" fill="#172b4d" class="wordmark-text-0" data-fill-palette-color="primary" id="text-0"></path></svg></g></svg></g><g transform="matrix(1,0,0,1,0,97.99691665184983)"><svg viewBox="0 0 177.37199999999999 11.864261752756818" height="11.864261752756818" width="177.37199999999999"><g transform="matrix(1,0,0,1,0,0)"><svg width="177.37199999999999" viewBox="-10.35 -47.5 1034.7 70.15" height="11.864261752756818" data-palette-color="#000000"><path d="M25.6-30.65L15.85-12.45 15.85-5.7Q15.85-2.25 16.5-0.35L16.5-0.35Q16.15 0 15.55 0.28 14.95 0.55 14.2 0.55L14.2 0.55Q13.15 0.55 12.53-0.05 11.9-0.65 11.9-1.65L11.9-1.65 11.85-12.45Q11.45-13.05 11.3-13.35L11.3-13.35 2.35-31.55Q1.85-32.6 0.65-33.9L0.65-33.9Q1.1-34.4 1.85-34.8 2.6-35.2 3.55-35.2L3.55-35.2Q4.6-35.2 5.2-34.65 5.8-34.1 6.3-33L6.3-33 14.5-15.35 22.25-31.8Q22.75-32.95 22.75-33.55L22.75-33.55Q22.75-34.3 22.4-34.8L22.4-34.8Q23.3-35.2 24.6-35.2L24.6-35.2Q25.55-35.2 26.05-34.65 26.55-34.1 26.6-33.25L26.6-33.25Q26.6-32.3 25.6-30.65L25.6-30.65ZM41.3 0.65Q35.9 0.65 32.87-2.88 29.85-6.4 29.85-12.7L29.85-12.7Q29.85-19 32.87-22.53 35.9-26.05 41.3-26.05L41.3-26.05Q46.75-26.05 49.77-22.53 52.8-19 52.8-12.7L52.8-12.7Q52.8-6.4 49.77-2.88 46.75 0.65 41.3 0.65L41.3 0.65ZM41.3-1.15Q44.8-1.15 46.65-4.13 48.5-7.1 48.5-12.7L48.5-12.7Q48.5-18.3 46.65-21.25 44.8-24.2 41.3-24.2L41.3-24.2Q37.8-24.2 35.95-21.25 34.1-18.3 34.1-12.7L34.1-12.7Q34.1-7.1 35.95-4.13 37.8-1.15 41.3-1.15L41.3-1.15ZM81.45-3.35Q82.05-2.55 82.05-1.8L82.05-1.8Q82.05-0.75 81.25-0.13 80.45 0.5 79.05 0.5L79.05 0.5Q75.15 0.5 75.15-4.6L75.15-4.6 75.15-5.6Q74.09-2.65 71.9-1 69.7 0.65 66.75 0.65L66.75 0.65Q62.65 0.65 60.8-1.75 58.95-4.15 58.9-9.85L58.9-9.85 58.9-19.75Q58.9-23.2 58.25-25.15L58.25-25.15Q59.35-26.05 60.6-26.05L60.6-26.05Q61.6-26.05 62.22-25.45 62.85-24.85 62.85-23.8L62.85-23.8 62.9-10.35Q62.9-7.1 63.37-5.2 63.85-3.3 64.92-2.43 66-1.55 67.9-1.55L67.9-1.55Q69.59-1.55 71.17-2.78 72.75-4 73.77-6.68 74.8-9.35 74.8-13.45L74.8-13.45Q74.8-19.9 74.7-21.85 74.59-23.8 74.09-25.15L74.09-25.15Q75.15-26.05 76.4-26.05L76.4-26.05Q77.4-26.05 78.05-25.4 78.7-24.75 78.7-23.65L78.7-23.65 78.75-5.15Q78.75-3.75 79.07-3.18 79.4-2.6 80.15-2.6L80.15-2.6Q81.05-2.6 81.45-3.35L81.45-3.35ZM98.09-26.05Q100.69-26.05 102.27-24.68 103.84-23.3 103.84-20.85L103.84-20.85Q103.84-19.2 102.89-18.13 101.94-17.05 100.64-17.05L100.64-17.05Q99.54-17.05 99.14-17.55L99.14-17.55Q99.69-18.4 99.89-19.13 100.09-19.85 100.09-20.75L100.09-20.75Q100.09-23.85 97.19-23.85L97.19-23.85Q94.94-23.85 93.42-20.98 91.89-18.1 91.89-12.05L91.89-12.05 91.89-9.35Q91.89-4.85 91.99-3.25 92.09-1.65 92.54-0.45L92.54-0.45Q91.49 0.45 90.19 0.45L90.19 0.45Q89.19 0.45 88.54-0.18 87.89-0.8 87.89-1.9L87.89-1.9 87.89-20.3Q87.89-21.7 87.57-22.3 87.24-22.9 86.49-22.9L86.49-22.9Q85.54-22.9 85.19-22.1L85.19-22.1Q84.59-22.95 84.59-23.7L84.59-23.7Q84.59-24.75 85.39-25.38 86.19-26 87.59-26L87.59-26Q89.54-26 90.52-24.63 91.49-23.25 91.44-20.55L91.44-20.55 91.44-20.3Q92.29-23.15 93.99-24.6 95.69-26.05 98.09-26.05L98.09-26.05ZM132.49 0.65Q126.19 0.65 122.71-4 119.24-8.65 119.24-17.3L119.24-17.3Q119.24-26 122.79-30.65 126.34-35.3 132.74-35.3L132.74-35.3Q135.39-35.3 137.66-34.63 139.94-33.95 141.31-32.77 142.69-31.6 142.69-30.25L142.69-30.25Q142.69-29.3 141.79-28.6 140.89-27.9 139.44-28.05L139.44-28.05Q139.04-30.65 137.31-32.05 135.59-33.45 132.79-33.45L132.79-33.45Q128.29-33.45 125.99-29.38 123.69-25.3 123.69-17.3L123.69-17.3Q123.69-9.35 125.99-5.28 128.29-1.2 132.69-1.2L132.69-1.2Q135.49-1.2 137.59-2.9 139.69-4.6 140.29-7.65L140.29-7.65 140.89-7.7Q142.04-7.7 142.84-7.18 143.64-6.65 143.64-5.65L143.64-5.65Q143.64-4 142.06-2.55 140.49-1.1 137.91-0.23 135.34 0.65 132.49 0.65L132.49 0.65ZM159.74 0.65Q154.34 0.65 151.31-2.88 148.28-6.4 148.28-12.7L148.28-12.7Q148.28-19 151.31-22.53 154.34-26.05 159.74-26.05L159.74-26.05Q165.19-26.05 168.21-22.53 171.24-19 171.24-12.7L171.24-12.7Q171.24-6.4 168.21-2.88 165.19 0.65 159.74 0.65L159.74 0.65ZM159.74-1.15Q163.24-1.15 165.09-4.13 166.94-7.1 166.94-12.7L166.94-12.7Q166.94-18.3 165.09-21.25 163.24-24.2 159.74-24.2L159.74-24.2Q156.24-24.2 154.39-21.25 152.53-18.3 152.53-12.7L152.53-12.7Q152.53-7.1 154.39-4.13 156.24-1.15 159.74-1.15L159.74-1.15ZM213.18-5.7Q213.18-2.25 213.83-0.35L213.83-0.35Q212.73 0.55 211.53 0.55L211.53 0.55Q210.53 0.55 209.88-0.05 209.23-0.65 209.23-1.65L209.23-1.65 209.23-15.15Q209.23-19.45 208.18-21.65 207.13-23.85 204.48-23.85L204.48-23.85Q202.88-23.85 201.38-22.7 199.88-21.55 198.86-19.03 197.83-16.5 197.78-12.7L197.78-12.7 197.83-5.7Q197.83-2.1 198.43-0.35L198.43-0.35Q197.43 0.55 196.18 0.55L196.18 0.55Q195.18 0.55 194.58-0.05 193.98-0.65 193.98-1.65L193.98-1.65 193.93-15.15Q193.93-19.6 192.83-21.73 191.73-23.85 189.03-23.85L189.03-23.85Q187.38-23.85 185.91-22.63 184.43-21.4 183.48-18.68 182.53-15.95 182.53-11.75L182.53-11.75Q182.53-5.45 182.63-3.55 182.73-1.65 183.23-0.35L183.23-0.35Q182.18 0.55 180.93 0.55L180.93 0.55Q179.88 0.55 179.26-0.1 178.63-0.75 178.63-1.85L178.63-1.85 178.58-20.25Q178.58-21.55 178.13-22.23 177.68-22.9 176.83-22.9L176.83-22.9Q176.38-22.9 175.93-22.63 175.48-22.35 175.28-21.85L175.28-21.85Q174.73-22.55 174.73-23.4L174.73-23.4Q174.73-24.55 175.63-25.28 176.53-26 177.83-26L177.83-26Q179.88-26 181.01-24.58 182.13-23.15 182.13-20.45L182.13-20.45 182.13-19.65Q183.13-22.65 185.23-24.35 187.33-26.05 190.18-26.05L190.18-26.05Q196.28-26.05 197.43-19.55L197.43-19.55Q198.33-22.6 200.48-24.33 202.63-26.05 205.58-26.05L205.58-26.05Q209.48-26.05 211.33-23.43 213.18-20.8 213.18-15.65L213.18-15.65 213.18-5.7ZM234.33-26.05Q239.13-26.05 241.06-22.48 242.98-18.9 242.98-13.9L242.98-13.9Q242.98-7 240.21-3.18 237.43 0.65 232.43 0.65L232.43 0.65Q229.88 0.65 228.1-0.4 226.33-1.45 225.58-3.35L225.58-3.35 225.58 2.75Q225.58 4.7 225.73 6.8 225.88 8.9 226.23 10.2L226.23 10.2Q225.93 10.55 225.33 10.83 224.73 11.1 223.93 11.1L223.93 11.1Q222.88 11.1 222.23 10.53 221.58 9.95 221.58 8.9L221.58 8.9 221.63-20.2Q221.63-21.6 221.31-22.18 220.98-22.75 220.23-22.75L220.23-22.75Q219.28-22.75 218.93-22L218.93-22Q218.33-22.85 218.33-23.6L218.33-23.6Q218.33-24.6 219.18-25.23 220.03-25.85 221.33-25.85L221.33-25.85Q225.38-25.85 225.38-19.5L225.38-19.5 225.38-19.05Q226.58-22.35 228.81-24.2 231.03-26.05 234.33-26.05L234.33-26.05ZM231.53-1.7Q235.08-1.7 236.91-4.78 238.73-7.85 238.73-13.85L238.73-13.85Q238.73-18.15 237.61-20.88 236.48-23.6 233.33-23.6L233.33-23.6Q230.93-23.6 229.18-21.83 227.43-20.05 226.53-17.05 225.63-14.05 225.63-10.55L225.63-10.55Q225.63-6.45 226.93-4.08 228.23-1.7 231.53-1.7L231.53-1.7ZM253.93 0.5Q251.68 0.5 250.43-0.95 249.18-2.4 249.18-5.05L249.18-5.05 249.18-34.3Q249.18-35.35 249.83-35.93 250.48-36.5 251.53-36.5L251.53-36.5Q252.78-36.5 253.83-35.6L253.83-35.6Q253.43-34.3 253.3-32.25 253.18-30.2 253.18-25.85L253.18-25.85 253.18-5.25Q253.18-3.95 253.65-3.28 254.13-2.6 255.08-2.6L255.08-2.6Q255.63-2.6 256.15-2.88 256.68-3.15 256.93-3.65L256.93-3.65Q257.48-2.9 257.48-2.1L257.48-2.1Q257.48-0.95 256.45-0.23 255.43 0.5 253.93 0.5L253.93 0.5ZM281.03-6.45Q281.78-6.2 281.78-5.3L281.78-5.3Q281.78-4.8 281.48-3.95L281.48-3.95Q280.53-1.75 278.15-0.55 275.78 0.65 272.57 0.65L272.57 0.65Q267.07 0.65 263.98-2.78 260.88-6.2 260.88-12.55L260.88-12.55Q260.88-18.85 263.95-22.45 267.03-26.05 272.78-26.05L272.78-26.05Q276.93-26.05 279.43-24.18 281.93-22.3 281.93-18.85L281.93-18.85Q281.93-15.15 278.93-13.2 275.93-11.25 270.57-11.25L270.57-11.25Q267.63-11.25 265.18-11.6L265.18-11.6Q265.48-6.55 267.7-4.33 269.93-2.1 273.53-2.1L273.53-2.1Q276.28-2.1 278.28-3.23 280.28-4.35 281.03-6.45L281.03-6.45ZM272.63-24.25Q269.23-24.25 267.2-21.43 265.18-18.6 265.13-13.3L265.13-13.3Q267.53-13.1 269.03-13.05L269.03-13.05Q273.03-13.05 275.35-14.48 277.68-15.9 277.68-19.35L277.68-19.35Q277.68-22 276.23-23.13 274.78-24.25 272.63-24.25L272.63-24.25ZM295.02-25.35Q295.82-25.35 297.15-25.4 298.47-25.45 299.27-25.5L299.27-25.5 299.22-24.4Q299.17-23.9 298.87-23.58 298.57-23.25 298.12-23.25L298.12-23.25 292.97-23.25 292.97-21.35 292.97-5.25Q292.97-3.95 293.57-3.25 294.17-2.55 295.37-2.55L295.37-2.55Q296.12-2.55 296.8-2.83 297.47-3.1 297.72-3.6L297.72-3.6Q298.27-2.85 298.27-2L298.27-2Q298.27-0.85 297.07-0.15 295.87 0.55 294.02 0.55L294.02 0.55Q291.67 0.55 290.32-0.93 288.97-2.4 288.97-5L288.97-5 288.97-23.25 288.27-23.25Q286.22-23.25 285.27-23.1L285.27-23.1 285.32-24.25Q285.37-25.35 286.42-25.35L286.42-25.35 288.97-25.35 288.97-29.8Q288.97-30.85 289.62-31.43 290.27-32 291.32-32L291.32-32Q292.57-32 293.62-31.1L293.62-31.1Q293.07-29.4 293.02-25.35L293.02-25.35 295.02-25.35ZM323.52-6.45Q324.27-6.2 324.27-5.3L324.27-5.3Q324.27-4.8 323.97-3.95L323.97-3.95Q323.02-1.75 320.65-0.55 318.27 0.65 315.07 0.65L315.07 0.65Q309.57 0.65 306.47-2.78 303.37-6.2 303.37-12.55L303.37-12.55Q303.37-18.85 306.44-22.45 309.52-26.05 315.27-26.05L315.27-26.05Q319.42-26.05 321.92-24.18 324.42-22.3 324.42-18.85L324.42-18.85Q324.42-15.15 321.42-13.2 318.42-11.25 313.07-11.25L313.07-11.25Q310.12-11.25 307.67-11.6L307.67-11.6Q307.97-6.55 310.19-4.33 312.42-2.1 316.02-2.1L316.02-2.1Q318.77-2.1 320.77-3.23 322.77-4.35 323.52-6.45L323.52-6.45ZM315.12-24.25Q311.72-24.25 309.69-21.43 307.67-18.6 307.62-13.3L307.62-13.3Q310.02-13.1 311.52-13.05L311.52-13.05Q315.52-13.05 317.85-14.48 320.17-15.9 320.17-19.35L320.17-19.35Q320.17-22 318.72-23.13 317.27-24.25 315.12-24.25L315.12-24.25ZM353.87 0.65Q347.56 0.65 344.09-4 340.62-8.65 340.62-17.3L340.62-17.3Q340.62-26 344.17-30.65 347.72-35.3 354.12-35.3L354.12-35.3Q356.77-35.3 359.04-34.63 361.31-33.95 362.69-32.77 364.06-31.6 364.06-30.25L364.06-30.25Q364.06-29.3 363.17-28.6 362.27-27.9 360.81-28.05L360.81-28.05Q360.42-30.65 358.69-32.05 356.97-33.45 354.17-33.45L354.17-33.45Q349.67-33.45 347.37-29.38 345.06-25.3 345.06-17.3L345.06-17.3Q345.06-9.35 347.37-5.28 349.67-1.2 354.06-1.2L354.06-1.2Q356.87-1.2 358.97-2.9 361.06-4.6 361.67-7.65L361.67-7.65 362.27-7.7Q363.42-7.7 364.22-7.18 365.02-6.65 365.02-5.65L365.02-5.65Q365.02-4 363.44-2.55 361.87-1.1 359.29-0.23 356.72 0.65 353.87 0.65L353.87 0.65ZM393.91-3.65Q394.46-2.9 394.46-2.1L394.46-2.1Q394.46-1 393.44-0.25 392.41 0.5 390.96 0.5L390.96 0.5Q388.81 0.5 387.71-1 386.61-2.5 386.61-5.7L386.61-5.7 386.61-7.15Q384.96-3.6 382.14-1.53 379.31 0.55 375.96 0.55L375.96 0.55Q373.06 0.55 371.39-1.03 369.71-2.6 369.71-5.25L369.71-5.25Q369.71-8.2 371.96-10.25 374.21-12.3 378.01-13.35L378.01-13.35Q381.36-14.25 384.96-14.25L384.96-14.25Q385.96-14.25 386.41-14.2L386.41-14.2 386.41-15.5Q386.41-19.95 384.94-22.1 383.46-24.25 380.06-24.25L380.06-24.25Q377.86-24.25 376.36-23.3 374.86-22.35 374.86-20.2L374.86-20.2Q374.86-19.05 375.39-18.05 375.91-17.05 377.01-16.65L377.01-16.65Q376.21-15.65 374.61-15.65L374.61-15.65Q372.96-15.65 371.91-16.98 370.86-18.3 370.86-20.05L370.86-20.05Q370.86-22.95 373.41-24.5 375.96-26.05 380.41-26.05L380.41-26.05Q385.56-26.05 388.01-23.4 390.46-20.75 390.46-15.25L390.46-15.25 390.46-5.25Q390.46-2.6 392.26-2.6L392.26-2.6Q392.66-2.6 393.16-2.88 393.66-3.15 393.91-3.65L393.91-3.65ZM377.56-2.25Q379.56-2.25 381.64-3.73 383.71-5.2 385.09-7.6 386.46-10 386.51-12.6L386.51-12.6 385.36-12.65Q383.61-12.65 381.81-12.38 380.01-12.1 378.76-11.6L378.76-11.6Q376.56-10.8 375.31-9.4 374.06-8 374.06-6.1L374.06-6.1Q374.06-4.45 374.91-3.35 375.76-2.25 377.56-2.25L377.56-2.25ZM434.71-5.7Q434.71-2.25 435.36-0.35L435.36-0.35Q434.26 0.55 433.06 0.55L433.06 0.55Q432.06 0.55 431.41-0.05 430.76-0.65 430.76-1.65L430.76-1.65 430.76-15.15Q430.76-19.45 429.71-21.65 428.66-23.85 426.01-23.85L426.01-23.85Q424.41-23.85 422.91-22.7 421.41-21.55 420.39-19.03 419.36-16.5 419.31-12.7L419.31-12.7 419.36-5.7Q419.36-2.1 419.96-0.35L419.96-0.35Q418.96 0.55 417.71 0.55L417.71 0.55Q416.71 0.55 416.11-0.05 415.51-0.65 415.51-1.65L415.51-1.65 415.46-15.15Q415.46-19.6 414.36-21.73 413.26-23.85 410.56-23.85L410.56-23.85Q408.91-23.85 407.44-22.63 405.96-21.4 405.01-18.68 404.06-15.95 404.06-11.75L404.06-11.75Q404.06-5.45 404.16-3.55 404.26-1.65 404.76-0.35L404.76-0.35Q403.71 0.55 402.46 0.55L402.46 0.55Q401.41 0.55 400.79-0.1 400.16-0.75 400.16-1.85L400.16-1.85 400.11-20.25Q400.11-21.55 399.66-22.23 399.21-22.9 398.36-22.9L398.36-22.9Q397.91-22.9 397.46-22.63 397.01-22.35 396.81-21.85L396.81-21.85Q396.26-22.55 396.26-23.4L396.26-23.4Q396.26-24.55 397.16-25.28 398.06-26 399.36-26L399.36-26Q401.41-26 402.54-24.58 403.66-23.15 403.66-20.45L403.66-20.45 403.66-19.65Q404.66-22.65 406.76-24.35 408.86-26.05 411.71-26.05L411.71-26.05Q417.81-26.05 418.96-19.55L418.96-19.55Q419.86-22.6 422.01-24.33 424.16-26.05 427.11-26.05L427.11-26.05Q431.01-26.05 432.86-23.43 434.71-20.8 434.71-15.65L434.71-15.65 434.71-5.7ZM455.86-26.05Q460.66-26.05 462.58-22.48 464.51-18.9 464.51-13.9L464.51-13.9Q464.51-7 461.73-3.18 458.96 0.65 453.96 0.65L453.96 0.65Q451.41 0.65 449.63-0.4 447.86-1.45 447.11-3.35L447.11-3.35 447.11 2.75Q447.11 4.7 447.26 6.8 447.41 8.9 447.76 10.2L447.76 10.2Q447.46 10.55 446.86 10.83 446.26 11.1 445.46 11.1L445.46 11.1Q444.41 11.1 443.76 10.53 443.11 9.95 443.11 8.9L443.11 8.9 443.16-20.2Q443.16-21.6 442.83-22.18 442.51-22.75 441.76-22.75L441.76-22.75Q440.81-22.75 440.46-22L440.46-22Q439.86-22.85 439.86-23.6L439.86-23.6Q439.86-24.6 440.71-25.23 441.56-25.85 442.86-25.85L442.86-25.85Q446.91-25.85 446.91-19.5L446.91-19.5 446.91-19.05Q448.11-22.35 450.33-24.2 452.56-26.05 455.86-26.05L455.86-26.05ZM453.06-1.7Q456.61-1.7 458.43-4.78 460.26-7.85 460.26-13.85L460.26-13.85Q460.26-18.15 459.13-20.88 458.01-23.6 454.86-23.6L454.86-23.6Q452.46-23.6 450.71-21.83 448.96-20.05 448.06-17.05 447.16-14.05 447.16-10.55L447.16-10.55Q447.16-6.45 448.46-4.08 449.76-1.7 453.06-1.7L453.06-1.7ZM493.16-3.35Q493.76-2.55 493.76-1.8L493.76-1.8Q493.76-0.75 492.96-0.13 492.16 0.5 490.76 0.5L490.76 0.5Q486.86 0.5 486.86-4.6L486.86-4.6 486.86-5.6Q485.81-2.65 483.61-1 481.41 0.65 478.46 0.65L478.46 0.65Q474.36 0.65 472.51-1.75 470.66-4.15 470.61-9.85L470.61-9.85 470.61-19.75Q470.61-23.2 469.96-25.15L469.96-25.15Q471.06-26.05 472.31-26.05L472.31-26.05Q473.31-26.05 473.93-25.45 474.56-24.85 474.56-23.8L474.56-23.8 474.61-10.35Q474.61-7.1 475.08-5.2 475.56-3.3 476.63-2.43 477.71-1.55 479.61-1.55L479.61-1.55Q481.31-1.55 482.88-2.78 484.46-4 485.48-6.68 486.51-9.35 486.51-13.45L486.51-13.45Q486.51-19.9 486.41-21.85 486.31-23.8 485.81-25.15L485.81-25.15Q486.86-26.05 488.11-26.05L488.11-26.05Q489.11-26.05 489.76-25.4 490.41-24.75 490.41-23.65L490.41-23.65 490.46-5.15Q490.46-3.75 490.78-3.18 491.11-2.6 491.86-2.6L491.86-2.6Q492.76-2.6 493.16-3.35L493.16-3.35ZM506.2 0.65Q501.55 0.65 499.23-1.03 496.9-2.7 496.9-5.4L496.9-5.4Q496.9-6.65 497.5-7.43 498.1-8.2 499.4-8.2L499.4-8.2Q499.9-8.2 500.2-8.15L500.2-8.15Q500.05-7.55 500.05-6.95L500.05-6.95Q500.05-6.4 500.1-6.05L500.1-6.05Q500.2-3.85 501.93-2.55 503.65-1.25 506.55-1.25L506.55-1.25Q509.4-1.25 511.1-2.25 512.8-3.25 512.8-5.2L512.8-5.2Q512.8-7 511.5-8.05 510.2-9.1 507.4-10.35L507.4-10.35 505.8-11.1Q503-12.4 501.53-13.3 500.05-14.2 498.98-15.75 497.9-17.3 497.9-19.65L497.9-19.65Q497.9-22.9 500.45-24.5 503-26.1 506.9-26.1L506.9-26.1Q511-26.1 513.3-24.78 515.6-23.45 515.6-21.1L515.6-21.1Q515.6-19 513.75-18.8L513.75-18.8Q513.25-18.7 513.1-18.7L513.1-18.7Q512.8-18.7 512.3-18.8L512.3-18.8Q512.4-19.4 512.4-19.8L512.4-19.8Q512.4-20.45 512.25-20.9L512.25-20.9Q512.05-22.55 510.63-23.4 509.2-24.25 506.75-24.25L506.75-24.25Q504.5-24.25 503.05-23.43 501.6-22.6 501.6-20.8L501.6-20.8Q501.6-19.3 502.45-18.23 503.3-17.15 504.48-16.48 505.65-15.8 508.05-14.65L508.05-14.65 509.15-14.15Q511.6-13 513.08-12.13 514.55-11.25 515.58-9.85 516.6-8.45 516.6-6.5L516.6-6.5Q516.6-3.55 514.15-1.45 511.7 0.65 506.2 0.65L506.2 0.65ZM567.1-5.7Q567.1-2.1 567.7-0.35L567.7-0.35Q566.65 0.55 565.35 0.55L565.35 0.55Q564.4 0.55 563.8-0.05 563.2-0.65 563.2-1.65L563.2-1.65 563.1-29.8 552.15-5.45Q550.95-5 549.95-5L549.95-5Q549.05-5 548.35-5.35L548.35-5.35Q542.7-16.05 536.55-29.65L536.55-29.65 536.6-5.7Q536.6-1.95 537.25-0.05L537.25-0.05Q536.55 0.55 535.6 0.55L535.6 0.55Q534.15 0.55 534.15-1.3L534.15-1.3 534.1-28.95Q534.1-32.5 533.8-34.5L533.8-34.5Q534.4-35.1 536.45-35.1L536.45-35.1Q537.8-35.1 538.55-34.3L538.55-34.3 542.7-25.55 550.75-8.85Q551.75-11.05 557.7-24.6L557.7-24.6Q559.2-28.15 560.3-30.65 561.4-33.15 562.1-34.7L562.1-34.7Q563.15-35.1 564.55-35.1L564.55-35.1Q565.5-35.1 566.22-34.75 566.95-34.4 567-33.9L567-33.9 567.1-5.7ZM598.29-3.65Q598.84-2.9 598.84-2.1L598.84-2.1Q598.84-1 597.82-0.25 596.79 0.5 595.34 0.5L595.34 0.5Q593.19 0.5 592.09-1 590.99-2.5 590.99-5.7L590.99-5.7 590.99-7.15Q589.34-3.6 586.52-1.53 583.69 0.55 580.34 0.55L580.34 0.55Q577.44 0.55 575.77-1.03 574.09-2.6 574.09-5.25L574.09-5.25Q574.09-8.2 576.34-10.25 578.59-12.3 582.39-13.35L582.39-13.35Q585.74-14.25 589.34-14.25L589.34-14.25Q590.34-14.25 590.79-14.2L590.79-14.2 590.79-15.5Q590.79-19.95 589.32-22.1 587.84-24.25 584.44-24.25L584.44-24.25Q582.24-24.25 580.74-23.3 579.24-22.35 579.24-20.2L579.24-20.2Q579.24-19.05 579.77-18.05 580.29-17.05 581.39-16.65L581.39-16.65Q580.59-15.65 578.99-15.65L578.99-15.65Q577.34-15.65 576.29-16.98 575.24-18.3 575.24-20.05L575.24-20.05Q575.24-22.95 577.79-24.5 580.34-26.05 584.79-26.05L584.79-26.05Q589.94-26.05 592.39-23.4 594.84-20.75 594.84-15.25L594.84-15.25 594.84-5.25Q594.84-2.6 596.64-2.6L596.64-2.6Q597.04-2.6 597.54-2.88 598.04-3.15 598.29-3.65L598.29-3.65ZM581.94-2.25Q583.94-2.25 586.02-3.73 588.09-5.2 589.47-7.6 590.84-10 590.89-12.6L590.89-12.6 589.74-12.65Q587.99-12.65 586.19-12.38 584.39-12.1 583.14-11.6L583.14-11.6Q580.94-10.8 579.69-9.4 578.44-8 578.44-6.1L578.44-6.1Q578.44-4.45 579.29-3.35 580.14-2.25 581.94-2.25L581.94-2.25ZM624.19-5.7Q624.29-1.9 624.84-0.35L624.84-0.35Q623.84 0.55 622.54 0.55L622.54 0.55Q621.49 0.55 620.84-0.05 620.19-0.65 620.19-1.65L620.19-1.65 620.19-15.15Q620.14-19.5 618.97-21.6 617.79-23.7 614.99-23.7L614.99-23.7Q613.24-23.7 611.62-22.5 609.99-21.3 608.94-18.7 607.89-16.1 607.89-12.05L607.89-12.05Q607.89-5.6 607.99-3.65 608.09-1.7 608.59-0.35L608.59-0.35Q607.54 0.55 606.29 0.55L606.29 0.55Q605.24 0.55 604.59-0.1 603.94-0.75 603.94-1.85L603.94-1.85 603.94-20.3Q603.89-21.7 603.57-22.3 603.24-22.9 602.54-22.9L602.54-22.9Q601.59-22.9 601.24-22.1L601.24-22.1Q600.64-22.95 600.64-23.7L600.64-23.7Q600.64-24.75 601.44-25.38 602.24-26 603.64-26L603.64-26Q605.54-26 606.54-24.7 607.54-23.4 607.54-20.85L607.54-20.85 607.54-19.85Q608.59-22.8 610.84-24.43 613.09-26.05 616.14-26.05L616.14-26.05Q624.19-26.05 624.19-15.65L624.19-15.65 624.19-5.7ZM654.49-3.65Q655.04-2.9 655.04-2.1L655.04-2.1Q655.04-1 654.01-0.25 652.99 0.5 651.54 0.5L651.54 0.5Q649.39 0.5 648.29-1 647.19-2.5 647.19-5.7L647.19-5.7 647.19-7.15Q645.54-3.6 642.71-1.53 639.89 0.55 636.54 0.55L636.54 0.55Q633.64 0.55 631.96-1.03 630.29-2.6 630.29-5.25L630.29-5.25Q630.29-8.2 632.54-10.25 634.79-12.3 638.59-13.35L638.59-13.35Q641.94-14.25 645.54-14.25L645.54-14.25Q646.54-14.25 646.99-14.2L646.99-14.2 646.99-15.5Q646.99-19.95 645.51-22.1 644.04-24.25 640.64-24.25L640.64-24.25Q638.44-24.25 636.94-23.3 635.44-22.35 635.44-20.2L635.44-20.2Q635.44-19.05 635.96-18.05 636.49-17.05 637.59-16.65L637.59-16.65Q636.79-15.65 635.19-15.65L635.19-15.65Q633.54-15.65 632.49-16.98 631.44-18.3 631.44-20.05L631.44-20.05Q631.44-22.95 633.99-24.5 636.54-26.05 640.99-26.05L640.99-26.05Q646.14-26.05 648.59-23.4 651.04-20.75 651.04-15.25L651.04-15.25 651.04-5.25Q651.04-2.6 652.84-2.6L652.84-2.6Q653.24-2.6 653.74-2.88 654.24-3.15 654.49-3.65L654.49-3.65ZM638.14-2.25Q640.14-2.25 642.21-3.73 644.29-5.2 645.66-7.6 647.04-10 647.09-12.6L647.09-12.6 645.94-12.65Q644.19-12.65 642.39-12.38 640.59-12.1 639.34-11.6L639.34-11.6Q637.14-10.8 635.89-9.4 634.64-8 634.64-6.1L634.64-6.1Q634.64-4.45 635.49-3.35 636.34-2.25 638.14-2.25L638.14-2.25ZM666.44 11.65Q662.79 11.65 660.36 10.13 657.94 8.6 657.94 5.65L657.94 5.65Q657.94 4 658.81 2.98 659.69 1.95 661.04 1.95L661.04 1.95Q662.44 1.95 663.04 2.7L663.04 2.7Q661.64 3.75 661.64 5.75L661.64 5.75Q661.64 7.8 662.99 8.88 664.34 9.95 666.59 9.95L666.59 9.95Q670.84 9.95 672.86 6.88 674.89 3.8 674.89-2.25L674.89-2.25 674.89-5.65Q673.99-2.85 671.84-1.33 669.69 0.2 666.59 0.2L666.59 0.2Q657.74 0.2 657.74-12.4L657.74-12.4Q657.74-18.15 660.26-22.1 662.79-26.05 669.14-26.05L669.14-26.05Q671.94-26.05 674.56-25.28 677.19-24.5 678.84-22.75L678.84-22.75 678.84-2.25Q678.84 11.65 666.44 11.65L666.44 11.65ZM667.64-2Q671.34-2 673.09-5.05 674.84-8.1 674.89-12.4L674.89-12.4 674.94-22.35Q674.09-23.25 672.54-23.73 670.99-24.2 669.09-24.2L669.09-24.2Q664.94-24.2 663.46-20.85 661.99-17.5 661.99-12L661.99-12Q661.99-6.7 663.36-4.35 664.74-2 667.64-2L667.64-2ZM704.73-6.45Q705.48-6.2 705.48-5.3L705.48-5.3Q705.48-4.8 705.18-3.95L705.18-3.95Q704.23-1.75 701.86-0.55 699.48 0.65 696.28 0.65L696.28 0.65Q690.78 0.65 687.68-2.78 684.58-6.2 684.58-12.55L684.58-12.55Q684.58-18.85 687.66-22.45 690.73-26.05 696.48-26.05L696.48-26.05Q700.63-26.05 703.13-24.18 705.63-22.3 705.63-18.85L705.63-18.85Q705.63-15.15 702.63-13.2 699.63-11.25 694.28-11.25L694.28-11.25Q691.33-11.25 688.88-11.6L688.88-11.6Q689.18-6.55 691.41-4.33 693.63-2.1 697.23-2.1L697.23-2.1Q699.98-2.1 701.98-3.23 703.98-4.35 704.73-6.45L704.73-6.45ZM696.33-24.25Q692.93-24.25 690.91-21.43 688.88-18.6 688.83-13.3L688.83-13.3Q691.23-13.1 692.73-13.05L692.73-13.05Q696.73-13.05 699.06-14.48 701.38-15.9 701.38-19.35L701.38-19.35Q701.38-22 699.93-23.13 698.48-24.25 696.33-24.25L696.33-24.25ZM747.68-5.7Q747.68-2.25 748.33-0.35L748.33-0.35Q747.23 0.55 746.03 0.55L746.03 0.55Q745.03 0.55 744.38-0.05 743.73-0.65 743.73-1.65L743.73-1.65 743.73-15.15Q743.73-19.45 742.68-21.65 741.63-23.85 738.98-23.85L738.98-23.85Q737.38-23.85 735.88-22.7 734.38-21.55 733.36-19.03 732.33-16.5 732.28-12.7L732.28-12.7 732.33-5.7Q732.33-2.1 732.93-0.35L732.93-0.35Q731.93 0.55 730.68 0.55L730.68 0.55Q729.68 0.55 729.08-0.05 728.48-0.65 728.48-1.65L728.48-1.65 728.43-15.15Q728.43-19.6 727.33-21.73 726.23-23.85 723.53-23.85L723.53-23.85Q721.88-23.85 720.41-22.63 718.93-21.4 717.98-18.68 717.03-15.95 717.03-11.75L717.03-11.75Q717.03-5.45 717.13-3.55 717.23-1.65 717.73-0.35L717.73-0.35Q716.68 0.55 715.43 0.55L715.43 0.55Q714.38 0.55 713.76-0.1 713.13-0.75 713.13-1.85L713.13-1.85 713.08-20.25Q713.08-21.55 712.63-22.23 712.18-22.9 711.33-22.9L711.33-22.9Q710.88-22.9 710.43-22.63 709.98-22.35 709.78-21.85L709.78-21.85Q709.23-22.55 709.23-23.4L709.23-23.4Q709.23-24.55 710.13-25.28 711.03-26 712.33-26L712.33-26Q714.38-26 715.51-24.58 716.63-23.15 716.63-20.45L716.63-20.45 716.63-19.65Q717.63-22.65 719.73-24.35 721.83-26.05 724.68-26.05L724.68-26.05Q730.78-26.05 731.93-19.55L731.93-19.55Q732.83-22.6 734.98-24.33 737.13-26.05 740.08-26.05L740.08-26.05Q743.98-26.05 745.83-23.43 747.68-20.8 747.68-15.65L747.68-15.65 747.68-5.7ZM773.88-6.45Q774.63-6.2 774.63-5.3L774.63-5.3Q774.63-4.8 774.33-3.95L774.33-3.95Q773.38-1.75 771-0.55 768.63 0.65 765.43 0.65L765.43 0.65Q759.93 0.65 756.83-2.78 753.73-6.2 753.73-12.55L753.73-12.55Q753.73-18.85 756.8-22.45 759.88-26.05 765.63-26.05L765.63-26.05Q769.78-26.05 772.28-24.18 774.78-22.3 774.78-18.85L774.78-18.85Q774.78-15.15 771.78-13.2 768.78-11.25 763.43-11.25L763.43-11.25Q760.48-11.25 758.03-11.6L758.03-11.6Q758.33-6.55 760.55-4.33 762.78-2.1 766.38-2.1L766.38-2.1Q769.13-2.1 771.13-3.23 773.13-4.35 773.88-6.45L773.88-6.45ZM765.48-24.25Q762.08-24.25 760.05-21.43 758.03-18.6 757.98-13.3L757.98-13.3Q760.38-13.1 761.88-13.05L761.88-13.05Q765.88-13.05 768.2-14.48 770.53-15.9 770.53-19.35L770.53-19.35Q770.53-22 769.08-23.13 767.63-24.25 765.48-24.25L765.48-24.25ZM801.93-5.7Q802.03-1.9 802.58-0.35L802.58-0.35Q801.58 0.55 800.28 0.55L800.28 0.55Q799.23 0.55 798.58-0.05 797.93-0.65 797.93-1.65L797.93-1.65 797.93-15.15Q797.88-19.5 796.7-21.6 795.53-23.7 792.73-23.7L792.73-23.7Q790.98-23.7 789.35-22.5 787.73-21.3 786.68-18.7 785.63-16.1 785.63-12.05L785.63-12.05Q785.63-5.6 785.73-3.65 785.83-1.7 786.33-0.35L786.33-0.35Q785.28 0.55 784.03 0.55L784.03 0.55Q782.98 0.55 782.33-0.1 781.68-0.75 781.68-1.85L781.68-1.85 781.68-20.3Q781.63-21.7 781.3-22.3 780.98-22.9 780.28-22.9L780.28-22.9Q779.33-22.9 778.98-22.1L778.98-22.1Q778.38-22.95 778.38-23.7L778.38-23.7Q778.38-24.75 779.18-25.38 779.98-26 781.38-26L781.38-26Q783.28-26 784.28-24.7 785.28-23.4 785.28-20.85L785.28-20.85 785.28-19.85Q786.33-22.8 788.58-24.43 790.83-26.05 793.88-26.05L793.88-26.05Q801.93-26.05 801.93-15.65L801.93-15.65 801.93-5.7ZM816.57-25.35Q817.37-25.35 818.7-25.4 820.02-25.45 820.82-25.5L820.82-25.5 820.77-24.4Q820.72-23.9 820.42-23.58 820.12-23.25 819.67-23.25L819.67-23.25 814.52-23.25 814.52-21.35 814.52-5.25Q814.52-3.95 815.12-3.25 815.72-2.55 816.92-2.55L816.92-2.55Q817.67-2.55 818.35-2.83 819.02-3.1 819.27-3.6L819.27-3.6Q819.82-2.85 819.82-2L819.82-2Q819.82-0.85 818.62-0.15 817.42 0.55 815.57 0.55L815.57 0.55Q813.22 0.55 811.87-0.93 810.52-2.4 810.52-5L810.52-5 810.52-23.25 809.82-23.25Q807.77-23.25 806.82-23.1L806.82-23.1 806.87-24.25Q806.92-25.35 807.97-25.35L807.97-25.35 810.52-25.35 810.52-29.8Q810.52-30.85 811.17-31.43 811.82-32 812.87-32L812.87-32Q814.12-32 815.17-31.1L815.17-31.1Q814.62-29.4 814.57-25.35L814.57-25.35 816.57-25.35ZM847.42 0.65Q841.87 0.65 839.04-1.43 836.22-3.5 836.22-6.75L836.22-6.75Q836.22-9.65 839.02-9.65L839.02-9.65Q839.57-9.65 839.92-9.6L839.92-9.6Q839.67-8.85 839.77-7.5L839.77-7.5Q839.92-4.6 842.04-2.9 844.17-1.2 847.82-1.2L847.82-1.2Q851.12-1.2 853.09-2.75 855.07-4.3 855.07-7.3L855.07-7.3Q855.07-9.25 854.19-10.65 853.32-12.05 851.69-13.25 850.07-14.45 847.07-16.1L847.07-16.1Q843.67-18 841.72-19.43 839.77-20.85 838.62-22.7 837.47-24.55 837.47-27.1L837.47-27.1Q837.47-31.2 840.47-33.25 843.47-35.3 848.07-35.3L848.07-35.3Q852.57-35.3 855.29-33.65 858.02-32 858.02-29.1L858.02-29.1Q858.02-27 856.02-26.8L856.02-26.8Q855.62-26.7 855.37-26.7L855.37-26.7Q855.07-26.7 854.47-26.8L854.47-26.8Q854.62-27.35 854.62-27.8L854.62-27.8Q854.62-28.4 854.47-28.9L854.47-28.9Q854.27-31.05 852.42-32.25 850.57-33.45 847.67-33.45L847.67-33.45Q845.02-33.45 843.14-32.25 841.27-31.05 841.27-28.35L841.27-28.35Q841.27-26.45 842.22-25.03 843.17-23.6 844.77-22.5 846.37-21.4 849.32-19.75L849.32-19.75Q852.47-18.05 854.52-16.55 856.57-15.05 857.82-13.05 859.07-11.05 859.07-8.4L859.07-8.4Q859.07-6 857.89-3.95 856.72-1.9 854.12-0.63 851.52 0.65 847.42 0.65L847.42 0.65ZM875.07 0.65Q869.67 0.65 866.64-2.88 863.62-6.4 863.62-12.7L863.62-12.7Q863.62-19 866.64-22.53 869.67-26.05 875.07-26.05L875.07-26.05Q880.52-26.05 883.54-22.53 886.57-19 886.57-12.7L886.57-12.7Q886.57-6.4 883.54-2.88 880.52 0.65 875.07 0.65L875.07 0.65ZM875.07-1.15Q878.57-1.15 880.42-4.13 882.27-7.1 882.27-12.7L882.27-12.7Q882.27-18.3 880.42-21.25 878.57-24.2 875.07-24.2L875.07-24.2Q871.57-24.2 869.72-21.25 867.87-18.3 867.87-12.7L867.87-12.7Q867.87-7.1 869.72-4.13 871.57-1.15 875.07-1.15L875.07-1.15ZM897.51 0.5Q895.26 0.5 894.01-0.95 892.76-2.4 892.76-5.05L892.76-5.05 892.76-34.3Q892.76-35.35 893.41-35.93 894.06-36.5 895.11-36.5L895.11-36.5Q896.36-36.5 897.41-35.6L897.41-35.6Q897.01-34.3 896.89-32.25 896.76-30.2 896.76-25.85L896.76-25.85 896.76-5.25Q896.76-3.95 897.24-3.28 897.71-2.6 898.66-2.6L898.66-2.6Q899.21-2.6 899.74-2.88 900.26-3.15 900.51-3.65L900.51-3.65Q901.06-2.9 901.06-2.1L901.06-2.1Q901.06-0.95 900.04-0.23 899.01 0.5 897.51 0.5L897.51 0.5ZM928.71-3.35Q929.31-2.55 929.31-1.8L929.31-1.8Q929.31-0.75 928.51-0.13 927.71 0.5 926.31 0.5L926.31 0.5Q922.41 0.5 922.41-4.6L922.41-4.6 922.41-5.6Q921.36-2.65 919.16-1 916.96 0.65 914.01 0.65L914.01 0.65Q909.91 0.65 908.06-1.75 906.21-4.15 906.16-9.85L906.16-9.85 906.16-19.75Q906.16-23.2 905.51-25.15L905.51-25.15Q906.61-26.05 907.86-26.05L907.86-26.05Q908.86-26.05 909.49-25.45 910.11-24.85 910.11-23.8L910.11-23.8 910.16-10.35Q910.16-7.1 910.64-5.2 911.11-3.3 912.19-2.43 913.26-1.55 915.16-1.55L915.16-1.55Q916.86-1.55 918.44-2.78 920.01-4 921.04-6.68 922.06-9.35 922.06-13.45L922.06-13.45Q922.06-19.9 921.96-21.85 921.86-23.8 921.36-25.15L921.36-25.15Q922.41-26.05 923.66-26.05L923.66-26.05Q924.66-26.05 925.31-25.4 925.96-24.75 925.96-23.65L925.96-23.65 926.01-5.15Q926.01-3.75 926.34-3.18 926.66-2.6 927.41-2.6L927.41-2.6Q928.31-2.6 928.71-3.35L928.71-3.35ZM941.36-25.35Q942.16-25.35 943.48-25.4 944.81-25.45 945.61-25.5L945.61-25.5 945.56-24.4Q945.51-23.9 945.21-23.58 944.91-23.25 944.46-23.25L944.46-23.25 939.31-23.25 939.31-21.35 939.31-5.25Q939.31-3.95 939.91-3.25 940.51-2.55 941.71-2.55L941.71-2.55Q942.46-2.55 943.13-2.83 943.81-3.1 944.06-3.6L944.06-3.6Q944.61-2.85 944.61-2L944.61-2Q944.61-0.85 943.41-0.15 942.21 0.55 940.36 0.55L940.36 0.55Q938.01 0.55 936.66-0.93 935.31-2.4 935.31-5L935.31-5 935.31-23.25 934.61-23.25Q932.56-23.25 931.61-23.1L931.61-23.1 931.66-24.25Q931.71-25.35 932.76-25.35L932.76-25.35 935.31-25.35 935.31-29.8Q935.31-30.85 935.96-31.43 936.61-32 937.66-32L937.66-32Q938.91-32 939.96-31.1L939.96-31.1Q939.41-29.4 939.36-25.35L939.36-25.35 941.36-25.35ZM953.86-30Q952.76-30 951.96-30.8 951.16-31.6 951.16-32.7L951.16-32.7Q951.16-33.85 951.96-34.63 952.76-35.4 953.86-35.4L953.86-35.4Q955.01-35.4 955.78-34.63 956.56-33.85 956.56-32.7L956.56-32.7Q956.56-31.6 955.78-30.8 955.01-30 953.86-30L953.86-30ZM956.06-5.7Q956.06-2.05 956.71-0.35L956.71-0.35Q955.66 0.55 954.41 0.55L954.41 0.55Q953.41 0.55 952.78-0.05 952.16-0.65 952.16-1.65L952.16-1.65 952.11-19.8Q952.11-23.25 951.46-25.15L951.46-25.15Q952.51-26.05 953.76-26.05L953.76-26.05Q954.76-26.05 955.38-25.48 956.01-24.9 956.01-23.85L956.01-23.85 956.06-5.7ZM974.15 0.65Q968.75 0.65 965.73-2.88 962.7-6.4 962.7-12.7L962.7-12.7Q962.7-19 965.73-22.53 968.75-26.05 974.15-26.05L974.15-26.05Q979.6-26.05 982.63-22.53 985.65-19 985.65-12.7L985.65-12.7Q985.65-6.4 982.63-2.88 979.6 0.65 974.15 0.65L974.15 0.65ZM974.15-1.15Q977.65-1.15 979.5-4.13 981.35-7.1 981.35-12.7L981.35-12.7Q981.35-18.3 979.5-21.25 977.65-24.2 974.15-24.2L974.15-24.2Q970.65-24.2 968.8-21.25 966.95-18.3 966.95-12.7L966.95-12.7Q966.95-7.1 968.8-4.13 970.65-1.15 974.15-1.15L974.15-1.15ZM1012.7-5.7Q1012.8-1.9 1013.35-0.35L1013.35-0.35Q1012.35 0.55 1011.05 0.55L1011.05 0.55Q1010 0.55 1009.35-0.05 1008.7-0.65 1008.7-1.65L1008.7-1.65 1008.7-15.15Q1008.65-19.5 1007.48-21.6 1006.3-23.7 1003.5-23.7L1003.5-23.7Q1001.75-23.7 1000.13-22.5 998.5-21.3 997.45-18.7 996.4-16.1 996.4-12.05L996.4-12.05Q996.4-5.6 996.5-3.65 996.6-1.7 997.1-0.35L997.1-0.35Q996.05 0.55 994.8 0.55L994.8 0.55Q993.75 0.55 993.1-0.1 992.45-0.75 992.45-1.85L992.45-1.85 992.45-20.3Q992.4-21.7 992.08-22.3 991.75-22.9 991.05-22.9L991.05-22.9Q990.1-22.9 989.75-22.1L989.75-22.1Q989.15-22.95 989.15-23.7L989.15-23.7Q989.15-24.75 989.95-25.38 990.75-26 992.15-26L992.15-26Q994.05-26 995.05-24.7 996.05-23.4 996.05-20.85L996.05-20.85 996.05-19.85Q997.1-22.8 999.35-24.43 1001.6-26.05 1004.65-26.05L1004.65-26.05Q1012.7-26.05 1012.7-15.65L1012.7-15.65 1012.7-5.7Z" opacity="1" transform="matrix(1,0,0,1,0,0)" fill="#000000" class="slogan-text-1" data-fill-palette-color="secondary" id="text-1"></path></svg></g></svg></g></svg></g></svg></g><g><svg viewBox="0 0 148.12800202355982 151.8281485551664" height="151.8281485551664" width="148.12800202355982"><g><svg xmlns="http://www.w3.org/2000/svg" xmlns:xlink="http://www.w3.org/1999/xlink" version="1.1" x="0" y="0" viewBox="9.02 6.736 82.468 84.52799999999999" enable-background="new 0 0 100 100" xml:space="preserve" height="151.8281485551664" width="148.12800202355982" class="icon-icon-0" data-fill-palette-color="accent" id="icon-0"><g fill="#4e74f9" data-fill-palette-color="accent"><rect x="54.137" y="36.652" width="9.698" height="35.942" fill="#4e74f9" data-fill-palette-color="accent"></rect><rect x="19.21" y="36.711" width="9.697" height="35.942" fill="#4e74f9" data-fill-palette-color="accent"></rect><rect x="36.674" y="36.711" width="9.697" height="35.942" fill="#4e74f9" data-fill-palette-color="accent"></rect><rect x="71.601" y="36.711" width="9.697" height="35.942" fill="#4e74f9" data-fill-palette-color="accent"></rect><polygon points="50.254,6.736 9.02,23.517 91.488,23.517  " fill="#4e74f9" data-fill-palette-color="accent"></polygon><rect x="14.591" y="77.289" width="71.326" height="5.224" fill="#4e74f9" data-fill-palette-color="accent"></rect><rect x="9.02" y="27.332" width="82.468" height="4.254" fill="#4e74f9" data-fill-palette-color="accent"></rect><rect x="9.854" y="86.041" width="80.802" height="5.223" fill="#4e74f9" data-fill-palette-color="accent"></rect></g></svg></g></svg></g></svg></g><defs></defs></svg><rect width="395.52" height="101.97543292363723" fill="none" stroke="none" visibility="hidden"></rect></g></svg></g></svg>