<svg width="304" height="301" fill="none" xmlns="http://www.w3.org/2000/svg"><path d="m32.628 25.594-16.69 259.449L287.31 301 304 41.55 32.628 25.595Zm22.37 20.465c-.092 1.518-1.457 2.671-3.044 2.574l-9.301-.55c-1.587-.098-2.794-1.394-2.692-2.911l.575-8.893c.093-1.517 1.458-2.671 3.045-2.573l9.301.55c1.587.089 2.794 1.393 2.692 2.91l-.575 8.893Zm26.576 1.562c-.093 1.517-1.457 2.671-3.044 2.574l-9.302-.55c-1.587-.09-2.794-1.394-2.691-2.912l.575-8.892c.093-1.517 1.457-2.671 3.045-2.574l9.3.55c1.588.09 2.795 1.394 2.693 2.912l-.576 8.892Zm26.576 1.562c-.093 1.517-1.458 2.671-3.045 2.574l-9.3-.55c-1.588-.098-2.795-1.394-2.693-2.912l.576-8.892c.102-1.517 1.457-2.671 3.044-2.573l9.301.55c1.588.088 2.794 1.393 2.692 2.91l-.575 8.893Zm26.575 1.562c-.092 1.517-1.457 2.671-3.044 2.574l-9.301-.55c-1.588-.09-2.794-1.394-2.692-2.912l.575-8.892c.102-1.518 1.458-2.671 3.045-2.574l9.301.55c1.587.09 2.794 1.394 2.692 2.911l-.576 8.893Zm26.576 1.562c-.093 1.517-1.457 2.671-3.045 2.573l-9.301-.55c-1.587-.089-2.794-1.393-2.692-2.91l.576-8.893c.093-1.518 1.457-2.671 3.045-2.574l9.301.55c1.587.098 2.794 1.394 2.692 2.911l-.576 8.893Zm26.576 1.562c-.093 1.517-1.458 2.67-3.045 2.573l-9.301-.55c-1.587-.089-2.794-1.393-2.692-2.91l.576-8.893c.092-1.518 1.457-2.671 3.044-2.574l9.301.55c1.588.09 2.794 1.394 2.692 2.911l-.575 8.893Zm26.575 1.562c-.093 1.517-1.457 2.67-3.044 2.573l-9.301-.55c-1.588-.089-2.794-1.393-2.692-2.91l.575-8.893c.093-1.518 1.458-2.672 3.045-2.574l9.301.55c1.587.098 2.794 1.394 2.692 2.911l-.576 8.893Zm26.576 1.562c-.093 1.517-1.457 2.67-3.045 2.573l-9.301-.55c-1.587-.089-2.794-1.393-2.692-2.91l.576-8.893c.093-1.518 1.457-2.672 3.044-2.574l9.302.55c1.587.09 2.794 1.394 2.691 2.911l-.575 8.892Zm26.576 1.561c-.093 1.518-1.458 2.672-3.045 2.574l-9.301-.55c-1.587-.089-2.794-1.393-2.692-2.911l.575-8.892c.093-1.518 1.458-2.672 3.045-2.574l9.301.55c1.587.089 2.794 1.394 2.692 2.911l-.575 8.892Zm26.575 1.562c-.093 1.518-1.457 2.672-3.044 2.574l-9.301-.55c-1.588-.089-2.795-1.394-2.692-2.911l.575-8.892c.093-1.518 1.457-2.672 3.045-2.574l9.301.55c1.587.089 2.794 1.393 2.692 2.911l-.576 8.892Z" fill="#E8E7E3" style="mix-blend-mode:multiply"/><path d="m27.987 21.157-16.69 259.449 271.372 15.957 16.69-259.45L27.987 21.158Zm22.37 20.465c-.093 1.518-1.457 2.671-3.044 2.574l-9.301-.55c-1.588-.098-2.794-1.394-2.692-2.911l.575-8.893c.093-1.517 1.458-2.671 3.045-2.573l9.301.55c1.587.088 2.794 1.393 2.692 2.91l-.576 8.893Zm26.576 1.562c-.093 1.518-1.457 2.671-3.045 2.574l-9.3-.55c-1.588-.09-2.795-1.394-2.693-2.911l.576-8.893c.093-1.517 1.457-2.671 3.045-2.574l9.3.55c1.588.09 2.795 1.394 2.692 2.912l-.575 8.892Zm26.576 1.562c-.093 1.517-1.458 2.671-3.045 2.573l-9.301-.55c-1.587-.097-2.794-1.393-2.692-2.91l.576-8.893c.102-1.517 1.457-2.671 3.044-2.574l9.301.55c1.588.09 2.794 1.394 2.692 2.912l-.575 8.892Zm26.575 1.562c-.093 1.517-1.457 2.671-3.044 2.574l-9.301-.55c-1.588-.09-2.794-1.394-2.692-2.912l.575-8.892c.102-1.518 1.458-2.671 3.045-2.574l9.301.55c1.587.09 2.794 1.394 2.692 2.912l-.576 8.892Zm26.576 1.562c-.093 1.517-1.457 2.671-3.045 2.573l-9.301-.55c-1.587-.089-2.794-1.393-2.692-2.91l.576-8.893c.093-1.518 1.457-2.671 3.044-2.574l9.301.55c1.588.098 2.795 1.394 2.692 2.911l-.575 8.893Zm26.576 1.562c-.093 1.517-1.458 2.67-3.045 2.573l-9.301-.55c-1.587-.089-2.794-1.393-2.692-2.91l.576-8.893c.092-1.518 1.457-2.671 3.044-2.574l9.301.55c1.587.09 2.794 1.394 2.692 2.911l-.575 8.893Zm26.575 1.562c-.093 1.517-1.457 2.67-3.045 2.573l-9.301-.55c-1.587-.089-2.793-1.393-2.691-2.91l.575-8.893c.093-1.518 1.457-2.672 3.045-2.574l9.301.55c1.587.098 2.794 1.394 2.692 2.911l-.576 8.893Zm26.576 1.562c-.093 1.517-1.458 2.67-3.045 2.573l-9.301-.55c-1.587-.089-2.794-1.393-2.692-2.91l.576-8.893c.093-1.518 1.457-2.672 3.044-2.574l9.301.55c1.588.09 2.794 1.394 2.692 2.911l-.575 8.893Zm26.575 1.562c-.092 1.517-1.457 2.67-3.044 2.573l-9.301-.55c-1.588-.089-2.794-1.393-2.692-2.911l.575-8.892c.093-1.518 1.458-2.672 3.045-2.574l9.301.55c1.587.089 2.794 1.394 2.692 2.911l-.576 8.892Zm26.576 1.561c-.093 1.518-1.457 2.672-3.045 2.574l-9.301-.55c-1.587-.089-2.794-1.394-2.692-2.911l.576-8.892c.093-1.518 1.457-2.672 3.045-2.574l9.301.55c1.587.089 2.794 1.394 2.692 2.911l-.576 8.892Z" fill="#ECF8FA"/><path opacity=".8" d="M108.391 11.732c-1.745-2.83-3.926-5.378-5.69-8.182-.641-1.012-1.559-2.316-1.977-3.55L0 56.886c2.024 1.686 3.667 5.378 4.734 7.038 3.36 5.218 6.72 10.445 9.867 15.788l100.455-56.736c-2.803-3.301-4.372-7.534-6.656-11.244h-.009Z" fill="#14ABBD"/></svg>