<svg width="324" height="324" fill="none" xmlns="http://www.w3.org/2000/svg"><path d="M82.961-6H324v273c-14.172-2.596-27.204-9.541-35.606-21.471-3.416-4.848-6.025-9.925-7.826-15.231-3.038-8.965-5.127-18.666-6.267-29.103a2798.724 2798.724 0 0 1-4.156-40.788c-.375-3.99-1.326-10.117-2.854-18.381-3.293-17.841-9.463-33.949-20.402-48.323-4.63-6.091-10.768-11.93-17.87-14.507-6.419-2.329-12.566-1.799-19.368-.074-2.46.621-6.31 2.09-11.552 4.409a6687.47 6687.47 0 0 1-16.445 7.24c-4.163 1.826-8.807 3.504-13.932 5.035-16.445 4.916-33.166 4.768-49.51-.71-6.474-2.17-13.535-5.339-21.18-9.504C77.925 75.189 60.71 58.325 63.09 34.696 64.57 20.022 73.41 5.2 82.961-6Z" fill="#FA0"/><path d="M21.108 34.215h.497C11.517 46.064 2.179 61.742.615 77.263c-2.513 24.995 15.67 42.833 35.85 53.838 8.077 4.406 15.534 7.758 22.373 10.053 17.262 5.795 34.924 5.952 52.294.752 5.413-1.62 10.318-3.395 14.715-5.327a7007.647 7007.647 0 0 0 17.369-7.658c5.537-2.452 9.604-4.007 12.202-4.664 7.184-1.824 13.677-2.385 20.458.078 7.501 2.727 13.984 8.903 18.874 15.346 11.554 15.205 18.071 32.243 21.549 51.116 1.614 8.741 2.619 15.223 3.015 19.444a2967.707 2967.707 0 0 0 4.389 43.145c1.205 11.04 3.411 21.302 6.62 30.785 1.902 5.613 4.658 10.983 8.266 16.112 8.874 12.619 22.639 19.965 37.608 22.711v.317c-2.978-.429-6.423-1.309-10.336-2.639-20.799-7.073-32.031-22.121-37.988-42.804-2.017-6.998-3.623-15.576-4.818-25.736-.727-6.204-1.757-16.589-3.088-31.155-.667-7.263-1.593-14.117-2.596-21.151-3.395-23.785-11.003-46.823-27.116-64.881-4.998-5.605-12.718-10.79-20.634-11.663-6.317-.698-14.023.98-20.014 3.395-4.679 1.886-13.078 5.565-25.197 11.038-3.936 1.779-9.318 3.597-16.147 5.454-12.769 3.47-25.57 3.914-38.407 1.332-16.859-3.39-33.649-11.61-47.384-22.039-7.268-5.517-14.053-12.897-18.047-21.112-7.779-16-4.515-33.116 3.697-48.164 3.825-7.012 8.154-13.335 12.986-18.97Z" fill="#151416"/></svg>