<svg width="308" height="395" viewBox="0 0 308 395" fill="none" xmlns="http://www.w3.org/2000/svg">
<path d="M247.355 369.644C252.206 373.154 257.197 376.387 262.33 379.343C262.535 379.462 262.678 379.46 262.758 379.338C265.392 381.339 268.242 382.885 271.309 383.978L279.335 387.768C280.426 388.627 281.695 389.169 283.142 389.393L284.282 389.831C284.208 389.936 284.216 390.008 284.306 390.047C288.127 391.791 292.212 393.214 296.562 394.317L298.246 394.634C298.522 394.689 298.522 394.743 298.246 394.798L297.236 395H-15V48.0734C-4.97196 45.8679 5.0625 45.2299 15.1034 46.1596C40.6258 48.5206 59.6184 63.6389 70.9938 86.0566C81.147 106.07 82.4702 127.843 77.5043 149.742C74.8867 161.289 71.3627 172.559 66.9326 183.551C63.9139 191.043 60.9193 198.544 57.9487 206.055C54.7392 214.187 51.621 222.895 51.7028 231.502C51.8039 242.731 60.2007 247.255 69.9352 248.943C80.422 250.764 90.8911 250.618 101.343 248.506C112.165 246.323 123.838 243.106 134.53 244.245C147.253 245.596 158.417 254.56 166.688 264.528C173.778 273.068 180.08 282.158 185.594 291.798C190.267 299.967 194.612 308.431 199.366 316.446C211.775 337.393 227.771 355.125 247.355 369.644Z" fill="#14ABBD" fill-opacity="0.08"/>
<path d="M308 345.3L307.499 345.31C286.691 329.892 269.695 311.061 256.512 288.818C251.461 280.305 246.844 271.318 241.88 262.642C236.021 252.406 229.325 242.753 221.793 233.684C213.005 223.098 201.144 213.58 187.626 212.145C176.266 210.934 163.863 214.351 152.365 216.669C141.261 218.912 130.138 219.067 118.996 217.134C108.654 215.341 99.7325 210.536 99.6251 198.613C99.5382 189.472 102.851 180.224 106.261 171.589C109.417 163.613 112.599 155.647 115.806 147.691C120.513 136.018 124.257 124.05 127.038 111.788C132.314 88.5332 130.908 65.4113 120.121 44.1583C108.035 20.3521 87.8562 4.29746 60.7396 1.7902C50.0715 0.802959 39.4103 1.48043 28.7559 3.82259V3.42938C42.004 0.324667 55.2095 0.00124699 68.3725 2.45914C82.9124 5.17066 96.665 12.7333 106.42 23.5079C122.381 41.1251 130.428 61.9644 130.561 86.026C130.668 104.43 125.412 123.288 118.94 140.379C114.99 150.813 110.951 161.213 106.823 171.579C103.848 179.055 101.154 186.761 100.208 194.788C98.9145 205.823 104.211 213.064 114.901 215.729C128.899 219.222 142.923 218.323 156.885 215.255C163.088 213.893 169.336 212.785 175.627 211.93C188.017 210.242 199.112 213.144 208.915 220.637C214.119 224.613 218.804 229.134 222.969 234.199C232.171 245.393 240.448 258.496 247.013 270.649C250.973 277.982 253.78 283.095 255.433 285.989C268.845 309.465 286.367 329.235 308 345.3Z" fill="#273E62"/>
</svg>
